<svg xmlns="http://www.w3.org/2000/svg" xml:space="preserve" id="Camada_1" x="0" y="0" viewBox="0 0 899 899"><style>.st0{fill:#fff}</style><path d="M549 565.9H350c-9.4 0-16.9-7.5-16.9-16.9V350c0-9.4 7.5-16.9 16.9-16.9h199c9.4 0 16.9 7.5 16.9 16.9v199c0 9.4-7.5 16.9-16.9 16.9" class="st0"/><circle cx="-9" cy="-9" r="3" class="st0" transform="translate(310 62)scale(5.16667)"/><circle cx="-9" cy="-9" r="3" class="st0" transform="translate(341 62)scale(5.16667)"/><circle cx="-9" cy="-9" r="3" class="st0" transform="translate(372 62)scale(5.16667)"/><circle cx="-9" cy="-9" r="3" class="st0" transform="translate(434 62)scale(5.16667)"/><circle cx="-9" cy="-9" r="3" class="st0" transform="translate(465 62)scale(5.16667)"/><circle cx="-9" cy="-9" r="3" class="st0" transform="translate(527 62)scale(5.16667)"/><circle cx="-9" cy="-9" r="3" class="st0" transform="translate(620 62)scale(5.16667)"/><circle cx="-9" cy="-9" r="3" class="st0" transform="translate(310 93)scale(5.16667)"/><circle cx="-9" cy="-9" r="3" class="st0" transform="translate(341 93)scale(5.16667)"/><circle cx="-9" cy="-9" r="3" class="st0" transform="translate(372 93)scale(5.16667)"/><circle cx="-9" cy="-9" r="3" class="st0" transform="translate(403 93)scale(5.16667)"/><circle cx="-9" cy="-9" r="3" class="st0" transform="translate(434 93)scale(5.16667)"/><circle cx="-9" cy="-9" r="3" class="st0" transform="translate(496 93)scale(5.16667)"/><circle cx="-9" cy="-9" r="3" class="st0" transform="translate(558 93)scale(5.16667)"/><circle cx="-9" cy="-9" r="3" class="st0" transform="translate(620 93)scale(5.16667)"/><circle cx="-9" cy="-9" r="3" class="st0" transform="translate(310 124)scale(5.16667)"/><circle cx="-9" cy="-9" r="3" class="st0" transform="translate(341 124)scale(5.16667)"/><circle cx="-9" cy="-9" r="3" class="st0" transform="translate(372 124)scale(5.16667)"/><circle cx="-9" cy="-9" r="3" class="st0" transform="translate(403 124)scale(5.16667)"/><circle cx="-9" cy="-9" r="3" class="st0" transform="translate(465 124)scale(5.16667)"/><circle cx="-9" cy="-9" r="3" class="st0" transform="translate(527 124)scale(5.16667)"/><circle cx="-9" cy="-9" r="3" class="st0" transform="translate(620 124)scale(5.16667)"/><circle cx="-9" cy="-9" r="3" class="st0" transform="translate(682 124)scale(5.16667)"/><circle cx="-9" cy="-9" r="3" class="st0" transform="translate(403 155)scale(5.16667)"/><circle cx="-9" cy="-9" r="3" class="st0" transform="translate(434 155)scale(5.16667)"/><circle cx="-9" cy="-9" r="3" class="st0" transform="translate(465 155)scale(5.16667)"/><circle cx="-9" cy="-9" r="3" class="st0" transform="translate(496 155)scale(5.16667)"/><circle cx="-9" cy="-9" r="3" class="st0" transform="translate(589 155)scale(5.16667)"/><circle cx="-9" cy="-9" r="3" class="st0" transform="translate(682 155)scale(5.16667)"/><circle cx="-9" cy="-9" r="3" class="st0" transform="translate(341 186)scale(5.16667)"/><circle cx="-9" cy="-9" r="3" class="st0" transform="translate(403 186)scale(5.16667)"/><circle cx="-9" cy="-9" r="3" class="st0" transform="translate(434 186)scale(5.16667)"/><circle cx="-9" cy="-9" r="3" class="st0" transform="translate(496 186)scale(5.16667)"/><circle cx="-9" cy="-9" r="3" class="st0" transform="translate(527 186)scale(5.16667)"/><circle cx="-9" cy="-9" r="3" class="st0" transform="translate(589 186)scale(5.16667)"/><circle cx="-9" cy="-9" r="3" class="st0" transform="translate(651 186)scale(5.16667)"/><circle cx="-9" cy="-9" r="3" class="st0" transform="translate(682 186)scale(5.16667)"/><circle cx="-9" cy="-9" r="3" class="st0" transform="translate(310 217)scale(5.16667)"/><circle cx="-9" cy="-9" r="3" class="st0" transform="translate(403 217)scale(5.16667)"/><circle cx="-9" cy="-9" r="3" class="st0" transform="translate(434 217)scale(5.16667)"/><circle cx="-9" cy="-9" r="3" class="st0" transform="translate(465 217)scale(5.16667)"/><circle cx="-9" cy="-9" r="3" class="st0" transform="translate(496 217)scale(5.16667)"/><circle cx="-9" cy="-9" r="3" class="st0" transform="translate(558 217)scale(5.16667)"/><circle cx="-9" cy="-9" r="3" class="st0" transform="translate(589 217)scale(5.16667)"/><circle cx="-9" cy="-9" r="3" class="st0" transform="translate(682 217)scale(5.16667)"/><circle cx="-9" cy="-9" r="3" class="st0" transform="translate(310 248)scale(5.16667)"/><circle cx="-9" cy="-9" r="3" class="st0" transform="translate(372 248)scale(5.16667)"/><circle cx="-9" cy="-9" r="3" class="st0" transform="translate(434 248)scale(5.16667)"/><circle cx="-9" cy="-9" r="3" class="st0" transform="translate(496 248)scale(5.16667)"/><circle cx="-9" cy="-9" r="3" class="st0" transform="translate(558 248)scale(5.16667)"/><circle cx="-9" cy="-9" r="3" class="st0" transform="translate(620 248)scale(5.16667)"/><circle cx="-9" cy="-9" r="3" class="st0" transform="translate(682 248)scale(5.16667)"/><circle cx="-9" cy="-9" r="3" class="st0" transform="translate(310 279)scale(5.16667)"/><circle cx="-9" cy="-9" r="3" class="st0" transform="translate(341 279)scale(5.16667)"/><circle cx="-9" cy="-9" r="3" class="st0" transform="translate(465 279)scale(5.16667)"/><circle cx="-9" cy="-9" r="3" class="st0" transform="translate(558 279)scale(5.16667)"/><circle cx="-9" cy="-9" r="3" class="st0" transform="translate(589 279)scale(5.16667)"/><circle cx="-9" cy="-9" r="3" class="st0" transform="translate(620 279)scale(5.16667)"/><circle cx="-9" cy="-9" r="3" class="st0" transform="translate(682 279)scale(5.16667)"/><circle cx="-9" cy="-9" r="3" class="st0" transform="translate(124 310)scale(5.16667)"/><circle cx="-9" cy="-9" r="3" class="st0" transform="translate(155 310)scale(5.16667)"/><circle cx="-9" cy="-9" r="3" class="st0" transform="translate(186 310)scale(5.16667)"/><circle cx="-9" cy="-9" r="3" class="st0" transform="translate(248 310)scale(5.16667)"/><circle cx="-9" cy="-9" r="3" class="st0" transform="translate(310 310)scale(5.16667)"/><circle cx="-9" cy="-9" r="3" class="st0" transform="translate(341 310)scale(5.16667)"/><circle cx="-9" cy="-9" r="3" class="st0" transform="translate(372 310)scale(5.16667)"/><circle cx="-9" cy="-9" r="3" class="st0" transform="translate(465 310)scale(5.16667)"/><circle cx="-9" cy="-9" r="3" class="st0" transform="translate(527 310)scale(5.16667)"/><circle cx="-9" cy="-9" r="3" class="st0" transform="translate(651 310)scale(5.16667)"/><circle cx="-9" cy="-9" r="3" class="st0" transform="translate(713 310)scale(5.16667)"/><circle cx="-9" cy="-9" r="3" class="st0" transform="translate(744 310)scale(5.16667)"/><circle cx="-9" cy="-9" r="3" class="st0" transform="translate(775 310)scale(5.16667)"/><circle cx="-9" cy="-9" r="3" class="st0" transform="translate(868 310)scale(5.16667)"/><circle cx="-9" cy="-9" r="3" class="st0" transform="translate(899 310)scale(5.16667)"/><circle cx="-9" cy="-9" r="3" class="st0" transform="translate(930 310)scale(5.16667)"/><circle cx="-9" cy="-9" r="3" class="st0" transform="translate(62 341)scale(5.16667)"/><circle cx="-9" cy="-9" r="3" class="st0" transform="translate(155 341)scale(5.16667)"/><circle cx="-9" cy="-9" r="3" class="st0" transform="translate(186 341)scale(5.16667)"/><circle cx="-9" cy="-9" r="3" class="st0" transform="translate(217 341)scale(5.16667)"/><circle cx="-9" cy="-9" r="3" class="st0" transform="translate(279 341)scale(5.16667)"/><circle cx="-9" cy="-9" r="3" class="st0" transform="translate(341 341)scale(5.16667)"/><circle cx="-9" cy="-9" r="3" class="st0" transform="translate(465 341)scale(5.16667)"/><circle cx="-9" cy="-9" r="3" class="st0" transform="translate(527 341)scale(5.16667)"/><circle cx="-9" cy="-9" r="3" class="st0" transform="translate(620 341)scale(5.16667)"/><circle cx="-9" cy="-9" r="3" class="st0" transform="translate(682 341)scale(5.16667)"/><circle cx="-9" cy="-9" r="3" class="st0" transform="translate(713 341)scale(5.16667)"/><circle cx="-9" cy="-9" r="3" class="st0" transform="translate(744 341)scale(5.16667)"/><circle cx="-9" cy="-9" r="3" class="st0" transform="translate(775 341)scale(5.16667)"/><circle cx="-9" cy="-9" r="3" class="st0" transform="translate(806 341)scale(5.16667)"/><circle cx="-9" cy="-9" r="3" class="st0" transform="translate(837 341)scale(5.16667)"/><circle cx="-9" cy="-9" r="3" class="st0" transform="translate(868 341)scale(5.16667)"/><circle cx="-9" cy="-9" r="3" class="st0" transform="translate(930 341)scale(5.16667)"/><circle cx="-9" cy="-9" r="3" class="st0" transform="translate(62 372)scale(5.16667)"/><circle cx="-9" cy="-9" r="3" class="st0" transform="translate(248 372)scale(5.16667)"/><circle cx="-9" cy="-9" r="3" class="st0" transform="translate(310 372)scale(5.16667)"/><circle cx="-9" cy="-9" r="3" class="st0" transform="translate(341 372)scale(5.16667)"/><circle cx="-9" cy="-9" r="3" class="st0" transform="translate(403 372)scale(5.16667)"/><circle cx="-9" cy="-9" r="3" class="st0" transform="translate(527 372)scale(5.16667)"/><circle cx="-9" cy="-9" r="3" class="st0" transform="translate(682 372)scale(5.16667)"/><circle cx="-9" cy="-9" r="3" class="st0" transform="translate(713 372)scale(5.16667)"/><circle cx="-9" cy="-9" r="3" class="st0" transform="translate(744 372)scale(5.16667)"/><circle cx="-9" cy="-9" r="3" class="st0" transform="translate(806 372)scale(5.16667)"/><circle cx="-9" cy="-9" r="3" class="st0" transform="translate(868 372)scale(5.16667)"/><circle cx="-9" cy="-9" r="3" class="st0" transform="translate(93 403)scale(5.16667)"/><circle cx="-9" cy="-9" r="3" class="st0" transform="translate(124 403)scale(5.16667)"/><circle cx="-9" cy="-9" r="3" class="st0" transform="translate(186 403)scale(5.16667)"/><circle cx="-9" cy="-9" r="3" class="st0" transform="translate(217 403)scale(5.16667)"/><circle cx="-9" cy="-9" r="3" class="st0" transform="translate(279 403)scale(5.16667)"/><circle cx="-9" cy="-9" r="3" class="st0" transform="translate(310 403)scale(5.16667)"/><circle cx="-9" cy="-9" r="3" class="st0" transform="translate(372 403)scale(5.16667)"/><circle cx="-9" cy="-9" r="3" class="st0" transform="translate(434 403)scale(5.16667)"/><circle cx="-9" cy="-9" r="3" class="st0" transform="translate(496 403)scale(5.16667)"/><circle cx="-9" cy="-9" r="3" class="st0" transform="translate(620 403)scale(5.16667)"/><circle cx="-9" cy="-9" r="3" class="st0" transform="translate(682 403)scale(5.16667)"/><circle cx="-9" cy="-9" r="3" class="st0" transform="translate(713 403)scale(5.16667)"/><circle cx="-9" cy="-9" r="3" class="st0" transform="translate(744 403)scale(5.16667)"/><circle cx="-9" cy="-9" r="3" class="st0" transform="translate(775 403)scale(5.16667)"/><circle cx="-9" cy="-9" r="3" class="st0" transform="translate(806 403)scale(5.16667)"/><circle cx="-9" cy="-9" r="3" class="st0" transform="translate(837 403)scale(5.16667)"/><circle cx="-9" cy="-9" r="3" class="st0" transform="translate(899 403)scale(5.16667)"/><circle cx="-9" cy="-9" r="3" class="st0" transform="translate(62 434)scale(5.16667)"/><circle cx="-9" cy="-9" r="3" class="st0" transform="translate(155 434)scale(5.16667)"/><circle cx="-9" cy="-9" r="3" class="st0" transform="translate(217 434)scale(5.16667)"/><circle cx="-9" cy="-9" r="3" class="st0" transform="translate(248 434)scale(5.16667)"/><circle cx="-9" cy="-9" r="3" class="st0" transform="translate(310 434)scale(5.16667)"/><circle cx="-9" cy="-9" r="3" class="st0" transform="translate(372 434)scale(5.16667)"/><circle cx="-9" cy="-9" r="3" class="st0" transform="translate(434 434)scale(5.16667)"/><circle cx="-9" cy="-9" r="3" class="st0" transform="translate(465 434)scale(5.16667)"/><circle cx="-9" cy="-9" r="3" class="st0" transform="translate(496 434)scale(5.16667)"/><circle cx="-9" cy="-9" r="3" class="st0" transform="translate(527 434)scale(5.16667)"/><circle cx="-9" cy="-9" r="3" class="st0" transform="translate(713 434)scale(5.16667)"/><circle cx="-9" cy="-9" r="3" class="st0" transform="translate(775 434)scale(5.16667)"/><circle cx="-9" cy="-9" r="3" class="st0" transform="translate(837 434)scale(5.16667)"/><circle cx="-9" cy="-9" r="3" class="st0" transform="translate(868 434)scale(5.16667)"/><circle cx="-9" cy="-9" r="3" class="st0" transform="translate(899 434)scale(5.16667)"/><circle cx="-9" cy="-9" r="3" class="st0" transform="translate(930 434)scale(5.16667)"/><circle cx="-9" cy="-9" r="3" class="st0" transform="translate(93 465)scale(5.16667)"/><circle cx="-9" cy="-9" r="3" class="st0" transform="translate(124 465)scale(5.16667)"/><circle cx="-9" cy="-9" r="3" class="st0" transform="translate(217 465)scale(5.16667)"/><circle cx="-9" cy="-9" r="3" class="st0" transform="translate(279 465)scale(5.16667)"/><circle cx="-9" cy="-9" r="3" class="st0" transform="translate(310 465)scale(5.16667)"/><circle cx="-9" cy="-9" r="3" class="st0" transform="translate(372 465)scale(5.16667)"/><circle cx="-9" cy="-9" r="3" class="st0" transform="translate(403 465)scale(5.16667)"/><circle cx="-9" cy="-9" r="3" class="st0" transform="translate(465 465)scale(5.16667)"/><circle cx="-9" cy="-9" r="3" class="st0" transform="translate(496 465)scale(5.16667)"/><circle cx="-9" cy="-9" r="3" class="st0" transform="translate(527 465)scale(5.16667)"/><circle cx="-9" cy="-9" r="3" class="st0" transform="translate(558 465)scale(5.16667)"/><circle cx="-9" cy="-9" r="3" class="st0" transform="translate(620 465)scale(5.16667)"/><circle cx="-9" cy="-9" r="3" class="st0" transform="translate(651 465)scale(5.16667)"/><circle cx="-9" cy="-9" r="3" class="st0" transform="translate(682 465)scale(5.16667)"/><circle cx="-9" cy="-9" r="3" class="st0" transform="translate(713 465)scale(5.16667)"/><circle cx="-9" cy="-9" r="3" class="st0" transform="translate(744 465)scale(5.16667)"/><circle cx="-9" cy="-9" r="3" class="st0" transform="translate(806 465)scale(5.16667)"/><circle cx="-9" cy="-9" r="3" class="st0" transform="translate(837 465)scale(5.16667)"/><circle cx="-9" cy="-9" r="3" class="st0" transform="translate(899 465)scale(5.16667)"/><circle cx="-9" cy="-9" r="3" class="st0" transform="translate(930 465)scale(5.16667)"/><circle cx="-9" cy="-9" r="3" class="st0" transform="translate(248 496)scale(5.16667)"/><circle cx="-9" cy="-9" r="3" class="st0" transform="translate(279 496)scale(5.16667)"/><circle cx="-9" cy="-9" r="3" class="st0" transform="translate(310 496)scale(5.16667)"/><circle cx="-9" cy="-9" r="3" class="st0" transform="translate(372 496)scale(5.16667)"/><circle cx="-9" cy="-9" r="3" class="st0" transform="translate(403 496)scale(5.16667)"/><circle cx="-9" cy="-9" r="3" class="st0" transform="translate(496 496)scale(5.16667)"/><circle cx="-9" cy="-9" r="3" class="st0" transform="translate(620 496)scale(5.16667)"/><circle cx="-9" cy="-9" r="3" class="st0" transform="translate(682 496)scale(5.16667)"/><circle cx="-9" cy="-9" r="3" class="st0" transform="translate(775 496)scale(5.16667)"/><circle cx="-9" cy="-9" r="3" class="st0" transform="translate(899 496)scale(5.16667)"/><circle cx="-9" cy="-9" r="3" class="st0" transform="translate(155 527)scale(5.16667)"/><circle cx="-9" cy="-9" r="3" class="st0" transform="translate(186 527)scale(5.16667)"/><circle cx="-9" cy="-9" r="3" class="st0" transform="translate(310 527)scale(5.16667)"/><circle cx="-9" cy="-9" r="3" class="st0" transform="translate(341 527)scale(5.16667)"/><circle cx="-9" cy="-9" r="3" class="st0" transform="translate(372 527)scale(5.16667)"/><circle cx="-9" cy="-9" r="3" class="st0" transform="translate(465 527)scale(5.16667)"/><circle cx="-9" cy="-9" r="3" class="st0" transform="translate(496 527)scale(5.16667)"/><circle cx="-9" cy="-9" r="3" class="st0" transform="translate(527 527)scale(5.16667)"/><circle cx="-9" cy="-9" r="3" class="st0" transform="translate(682 527)scale(5.16667)"/><circle cx="-9" cy="-9" r="3" class="st0" transform="translate(713 527)scale(5.16667)"/><circle cx="-9" cy="-9" r="3" class="st0" transform="translate(806 527)scale(5.16667)"/><circle cx="-9" cy="-9" r="3" class="st0" transform="translate(837 527)scale(5.16667)"/><circle cx="-9" cy="-9" r="3" class="st0" transform="translate(930 527)scale(5.16667)"/><circle cx="-9" cy="-9" r="3" class="st0" transform="translate(93 558)scale(5.16667)"/><circle cx="-9" cy="-9" r="3" class="st0" transform="translate(124 558)scale(5.16667)"/><circle cx="-9" cy="-9" r="3" class="st0" transform="translate(155 558)scale(5.16667)"/><circle cx="-9" cy="-9" r="3" class="st0" transform="translate(217 558)scale(5.16667)"/><circle cx="-9" cy="-9" r="3" class="st0" transform="translate(248 558)scale(5.16667)"/><circle cx="-9" cy="-9" r="3" class="st0" transform="translate(310 558)scale(5.16667)"/><circle cx="-9" cy="-9" r="3" class="st0" transform="translate(434 558)scale(5.16667)"/><circle cx="-9" cy="-9" r="3" class="st0" transform="translate(496 558)scale(5.16667)"/><circle cx="-9" cy="-9" r="3" class="st0" transform="translate(527 558)scale(5.16667)"/><circle cx="-9" cy="-9" r="3" class="st0" transform="translate(682 558)scale(5.16667)"/><circle cx="-9" cy="-9" r="3" class="st0" transform="translate(837 558)scale(5.16667)"/><circle cx="-9" cy="-9" r="3" class="st0" transform="translate(868 558)scale(5.16667)"/><circle cx="-9" cy="-9" r="3" class="st0" transform="translate(899 558)scale(5.16667)"/><circle cx="-9" cy="-9" r="3" class="st0" transform="translate(62 589)scale(5.16667)"/><circle cx="-9" cy="-9" r="3" class="st0" transform="translate(93 589)scale(5.16667)"/><circle cx="-9" cy="-9" r="3" class="st0" transform="translate(124 589)scale(5.16667)"/><circle cx="-9" cy="-9" r="3" class="st0" transform="translate(186 589)scale(5.16667)"/><circle cx="-9" cy="-9" r="3" class="st0" transform="translate(310 589)scale(5.16667)"/><circle cx="-9" cy="-9" r="3" class="st0" transform="translate(403 589)scale(5.16667)"/><circle cx="-9" cy="-9" r="3" class="st0" transform="translate(496 589)scale(5.16667)"/><circle cx="-9" cy="-9" r="3" class="st0" transform="translate(558 589)scale(5.16667)"/><circle cx="-9" cy="-9" r="3" class="st0" transform="translate(589 589)scale(5.16667)"/><circle cx="-9" cy="-9" r="3" class="st0" transform="translate(620 589)scale(5.16667)"/><circle cx="-9" cy="-9" r="3" class="st0" transform="translate(651 589)scale(5.16667)"/><circle cx="-9" cy="-9" r="3" class="st0" transform="translate(713 589)scale(5.16667)"/><circle cx="-9" cy="-9" r="3" class="st0" transform="translate(744 589)scale(5.16667)"/><circle cx="-9" cy="-9" r="3" class="st0" transform="translate(775 589)scale(5.16667)"/><circle cx="-9" cy="-9" r="3" class="st0" transform="translate(806 589)scale(5.16667)"/><circle cx="-9" cy="-9" r="3" class="st0" transform="translate(837 589)scale(5.16667)"/><circle cx="-9" cy="-9" r="3" class="st0" transform="translate(899 589)scale(5.16667)"/><circle cx="-9" cy="-9" r="3" class="st0" transform="translate(930 589)scale(5.16667)"/><circle cx="-9" cy="-9" r="3" class="st0" transform="translate(62 620)scale(5.16667)"/><circle cx="-9" cy="-9" r="3" class="st0" transform="translate(124 620)scale(5.16667)"/><circle cx="-9" cy="-9" r="3" class="st0" transform="translate(186 620)scale(5.16667)"/><circle cx="-9" cy="-9" r="3" class="st0" transform="translate(217 620)scale(5.16667)"/><circle cx="-9" cy="-9" r="3" class="st0" transform="translate(248 620)scale(5.16667)"/><circle cx="-9" cy="-9" r="3" class="st0" transform="translate(310 620)scale(5.16667)"/><circle cx="-9" cy="-9" r="3" class="st0" transform="translate(341 620)scale(5.16667)"/><circle cx="-9" cy="-9" r="3" class="st0" transform="translate(527 620)scale(5.16667)"/><circle cx="-9" cy="-9" r="3" class="st0" transform="translate(558 620)scale(5.16667)"/><circle cx="-9" cy="-9" r="3" class="st0" transform="translate(620 620)scale(5.16667)"/><circle cx="-9" cy="-9" r="3" class="st0" transform="translate(744 620)scale(5.16667)"/><circle cx="-9" cy="-9" r="3" class="st0" transform="translate(775 620)scale(5.16667)"/><circle cx="-9" cy="-9" r="3" class="st0" transform="translate(837 620)scale(5.16667)"/><circle cx="-9" cy="-9" r="3" class="st0" transform="translate(62 651)scale(5.16667)"/><circle cx="-9" cy="-9" r="3" class="st0" transform="translate(186 651)scale(5.16667)"/><circle cx="-9" cy="-9" r="3" class="st0" transform="translate(217 651)scale(5.16667)"/><circle cx="-9" cy="-9" r="3" class="st0" transform="translate(310 651)scale(5.16667)"/><circle cx="-9" cy="-9" r="3" class="st0" transform="translate(372 651)scale(5.16667)"/><circle cx="-9" cy="-9" r="3" class="st0" transform="translate(403 651)scale(5.16667)"/><circle cx="-9" cy="-9" r="3" class="st0" transform="translate(496 651)scale(5.16667)"/><circle cx="-9" cy="-9" r="3" class="st0" transform="translate(527 651)scale(5.16667)"/><circle cx="-9" cy="-9" r="3" class="st0" transform="translate(558 651)scale(5.16667)"/><circle cx="-9" cy="-9" r="3" class="st0" transform="translate(682 651)scale(5.16667)"/><circle cx="-9" cy="-9" r="3" class="st0" transform="translate(744 651)scale(5.16667)"/><circle cx="-9" cy="-9" r="3" class="st0" transform="translate(775 651)scale(5.16667)"/><circle cx="-9" cy="-9" r="3" class="st0" transform="translate(837 651)scale(5.16667)"/><circle cx="-9" cy="-9" r="3" class="st0" transform="translate(930 651)scale(5.16667)"/><circle cx="-9" cy="-9" r="3" class="st0" transform="translate(62 682)scale(5.16667)"/><circle cx="-9" cy="-9" r="3" class="st0" transform="translate(124 682)scale(5.16667)"/><circle cx="-9" cy="-9" r="3" class="st0" transform="translate(155 682)scale(5.16667)"/><circle cx="-9" cy="-9" r="3" class="st0" transform="translate(248 682)scale(5.16667)"/><circle cx="-9" cy="-9" r="3" class="st0" transform="translate(279 682)scale(5.16667)"/><circle cx="-9" cy="-9" r="3" class="st0" transform="translate(465 682)scale(5.16667)"/><circle cx="-9" cy="-9" r="3" class="st0" transform="translate(589 682)scale(5.16667)"/><circle cx="-9" cy="-9" r="3" class="st0" transform="translate(620 682)scale(5.16667)"/><circle cx="-9" cy="-9" r="3" class="st0" transform="translate(682 682)scale(5.16667)"/><circle cx="-9" cy="-9" r="3" class="st0" transform="translate(713 682)scale(5.16667)"/><circle cx="-9" cy="-9" r="3" class="st0" transform="translate(744 682)scale(5.16667)"/><circle cx="-9" cy="-9" r="3" class="st0" transform="translate(775 682)scale(5.16667)"/><circle cx="-9" cy="-9" r="3" class="st0" transform="translate(806 682)scale(5.16667)"/><circle cx="-9" cy="-9" r="3" class="st0" transform="translate(837 682)scale(5.16667)"/><circle cx="-9" cy="-9" r="3" class="st0" transform="translate(868 682)scale(5.16667)"/><circle cx="-9" cy="-9" r="3" class="st0" transform="translate(310 713)scale(5.16667)"/><circle cx="-9" cy="-9" r="3" class="st0" transform="translate(372 713)scale(5.16667)"/><circle cx="-9" cy="-9" r="3" class="st0" transform="translate(403 713)scale(5.16667)"/><circle cx="-9" cy="-9" r="3" class="st0" transform="translate(434 713)scale(5.16667)"/><circle cx="-9" cy="-9" r="3" class="st0" transform="translate(465 713)scale(5.16667)"/><circle cx="-9" cy="-9" r="3" class="st0" transform="translate(496 713)scale(5.16667)"/><circle cx="-9" cy="-9" r="3" class="st0" transform="translate(558 713)scale(5.16667)"/><circle cx="-9" cy="-9" r="3" class="st0" transform="translate(589 713)scale(5.16667)"/><circle cx="-9" cy="-9" r="3" class="st0" transform="translate(682 713)scale(5.16667)"/><circle cx="-9" cy="-9" r="3" class="st0" transform="translate(806 713)scale(5.16667)"/><circle cx="-9" cy="-9" r="3" class="st0" transform="translate(837 713)scale(5.16667)"/><circle cx="-9" cy="-9" r="3" class="st0" transform="translate(899 713)scale(5.16667)"/><circle cx="-9" cy="-9" r="3" class="st0" transform="translate(930 713)scale(5.16667)"/><circle cx="-9" cy="-9" r="3" class="st0" transform="translate(372 744)scale(5.16667)"/><circle cx="-9" cy="-9" r="3" class="st0" transform="translate(403 744)scale(5.16667)"/><circle cx="-9" cy="-9" r="3" class="st0" transform="translate(434 744)scale(5.16667)"/><circle cx="-9" cy="-9" r="3" class="st0" transform="translate(465 744)scale(5.16667)"/><circle cx="-9" cy="-9" r="3" class="st0" transform="translate(496 744)scale(5.16667)"/><circle cx="-9" cy="-9" r="3" class="st0" transform="translate(527 744)scale(5.16667)"/><circle cx="-9" cy="-9" r="3" class="st0" transform="translate(620 744)scale(5.16667)"/><circle cx="-9" cy="-9" r="3" class="st0" transform="translate(651 744)scale(5.16667)"/><circle cx="-9" cy="-9" r="3" class="st0" transform="translate(682 744)scale(5.16667)"/><circle cx="-9" cy="-9" r="3" class="st0" transform="translate(744 744)scale(5.16667)"/><circle cx="-9" cy="-9" r="3" class="st0" transform="translate(806 744)scale(5.16667)"/><circle cx="-9" cy="-9" r="3" class="st0" transform="translate(341 775)scale(5.16667)"/><circle cx="-9" cy="-9" r="3" class="st0" transform="translate(372 775)scale(5.16667)"/><circle cx="-9" cy="-9" r="3" class="st0" transform="translate(465 775)scale(5.16667)"/><circle cx="-9" cy="-9" r="3" class="st0" transform="translate(496 775)scale(5.16667)"/><circle cx="-9" cy="-9" r="3" class="st0" transform="translate(527 775)scale(5.16667)"/><circle cx="-9" cy="-9" r="3" class="st0" transform="translate(620 775)scale(5.16667)"/><circle cx="-9" cy="-9" r="3" class="st0" transform="translate(651 775)scale(5.16667)"/><circle cx="-9" cy="-9" r="3" class="st0" transform="translate(682 775)scale(5.16667)"/><circle cx="-9" cy="-9" r="3" class="st0" transform="translate(806 775)scale(5.16667)"/><circle cx="-9" cy="-9" r="3" class="st0" transform="translate(837 775)scale(5.16667)"/><circle cx="-9" cy="-9" r="3" class="st0" transform="translate(899 775)scale(5.16667)"/><circle cx="-9" cy="-9" r="3" class="st0" transform="translate(930 775)scale(5.16667)"/><circle cx="-9" cy="-9" r="3" class="st0" transform="translate(310 806)scale(5.16667)"/><circle cx="-9" cy="-9" r="3" class="st0" transform="translate(341 806)scale(5.16667)"/><circle cx="-9" cy="-9" r="3" class="st0" transform="translate(372 806)scale(5.16667)"/><circle cx="-9" cy="-9" r="3" class="st0" transform="translate(403 806)scale(5.16667)"/><circle cx="-9" cy="-9" r="3" class="st0" transform="translate(527 806)scale(5.16667)"/><circle cx="-9" cy="-9" r="3" class="st0" transform="translate(682 806)scale(5.16667)"/><circle cx="-9" cy="-9" r="3" class="st0" transform="translate(713 806)scale(5.16667)"/><circle cx="-9" cy="-9" r="3" class="st0" transform="translate(744 806)scale(5.16667)"/><circle cx="-9" cy="-9" r="3" class="st0" transform="translate(775 806)scale(5.16667)"/><circle cx="-9" cy="-9" r="3" class="st0" transform="translate(806 806)scale(5.16667)"/><circle cx="-9" cy="-9" r="3" class="st0" transform="translate(837 806)scale(5.16667)"/><circle cx="-9" cy="-9" r="3" class="st0" transform="translate(868 806)scale(5.16667)"/><circle cx="-9" cy="-9" r="3" class="st0" transform="translate(899 806)scale(5.16667)"/><circle cx="-9" cy="-9" r="3" class="st0" transform="translate(310 837)scale(5.16667)"/><circle cx="-9" cy="-9" r="3" class="st0" transform="translate(341 837)scale(5.16667)"/><circle cx="-9" cy="-9" r="3" class="st0" transform="translate(496 837)scale(5.16667)"/><circle cx="-9" cy="-9" r="3" class="st0" transform="translate(589 837)scale(5.16667)"/><circle cx="-9" cy="-9" r="3" class="st0" transform="translate(651 837)scale(5.16667)"/><circle cx="-9" cy="-9" r="3" class="st0" transform="translate(682 837)scale(5.16667)"/><circle cx="-9" cy="-9" r="3" class="st0" transform="translate(713 837)scale(5.16667)"/><circle cx="-9" cy="-9" r="3" class="st0" transform="translate(775 837)scale(5.16667)"/><circle cx="-9" cy="-9" r="3" class="st0" transform="translate(310 868)scale(5.16667)"/><circle cx="-9" cy="-9" r="3" class="st0" transform="translate(341 868)scale(5.16667)"/><circle cx="-9" cy="-9" r="3" class="st0" transform="translate(372 868)scale(5.16667)"/><circle cx="-9" cy="-9" r="3" class="st0" transform="translate(434 868)scale(5.16667)"/><circle cx="-9" cy="-9" r="3" class="st0" transform="translate(465 868)scale(5.16667)"/><circle cx="-9" cy="-9" r="3" class="st0" transform="translate(496 868)scale(5.16667)"/><circle cx="-9" cy="-9" r="3" class="st0" transform="translate(527 868)scale(5.16667)"/><circle cx="-9" cy="-9" r="3" class="st0" transform="translate(651 868)scale(5.16667)"/><circle cx="-9" cy="-9" r="3" class="st0" transform="translate(682 868)scale(5.16667)"/><circle cx="-9" cy="-9" r="3" class="st0" transform="translate(713 868)scale(5.16667)"/><circle cx="-9" cy="-9" r="3" class="st0" transform="translate(744 868)scale(5.16667)"/><circle cx="-9" cy="-9" r="3" class="st0" transform="translate(775 868)scale(5.16667)"/><circle cx="-9" cy="-9" r="3" class="st0" transform="translate(806 868)scale(5.16667)"/><circle cx="-9" cy="-9" r="3" class="st0" transform="translate(837 868)scale(5.16667)"/><circle cx="-9" cy="-9" r="3" class="st0" transform="translate(868 868)scale(5.16667)"/><circle cx="-9" cy="-9" r="3" class="st0" transform="translate(899 868)scale(5.16667)"/><circle cx="-9" cy="-9" r="3" class="st0" transform="translate(403 899)scale(5.16667)"/><circle cx="-9" cy="-9" r="3" class="st0" transform="translate(558 899)scale(5.16667)"/><circle cx="-9" cy="-9" r="3" class="st0" transform="translate(589 899)scale(5.16667)"/><circle cx="-9" cy="-9" r="3" class="st0" transform="translate(682 899)scale(5.16667)"/><circle cx="-9" cy="-9" r="3" class="st0" transform="translate(806 899)scale(5.16667)"/><circle cx="-9" cy="-9" r="3" class="st0" transform="translate(899 899)scale(5.16667)"/><circle cx="-9" cy="-9" r="3" class="st0" transform="translate(496 930)scale(5.16667)"/><circle cx="-9" cy="-9" r="3" class="st0" transform="translate(527 930)scale(5.16667)"/><circle cx="-9" cy="-9" r="3" class="st0" transform="translate(558 930)scale(5.16667)"/><circle cx="-9" cy="-9" r="3" class="st0" transform="translate(620 930)scale(5.16667)"/><circle cx="-9" cy="-9" r="3" class="st0" transform="translate(651 930)scale(5.16667)"/><circle cx="-9" cy="-9" r="3" class="st0" transform="translate(713 930)scale(5.16667)"/><circle cx="-9" cy="-9" r="3" class="st0" transform="translate(744 930)scale(5.16667)"/><circle cx="-9" cy="-9" r="3" class="st0" transform="translate(806 930)scale(5.16667)"/><circle cx="-9" cy="-9" r="3" class="st0" transform="translate(868 930)scale(5.16667)"/><path d="M0 108.5C0 168.95 48.05 217 108.5 217S217 168.95 217 108.5 168.95 0 108.5 0 0 48.05 0 108.5M108.5 186C65.1 186 31 151.9 31 108.5S65.1 31 108.5 31 186 65.1 186 108.5 151.9 186 108.5 186M682 108.5c0 60.45 48.05 108.5 108.5 108.5S899 168.95 899 108.5 850.95 0 790.5 0 682 48.05 682 108.5M790.5 186c-43.4 0-77.5-34.1-77.5-77.5S747.1 31 790.5 31 868 65.1 868 108.5 833.9 186 790.5 186M0 790.5C0 850.95 48.05 899 108.5 899S217 850.95 217 790.5 168.95 682 108.5 682 0 730.05 0 790.5M108.5 868C65.1 868 31 833.9 31 790.5S65.1 713 108.5 713s77.5 34.1 77.5 77.5-34.1 77.5-77.5 77.5" class="st0"/><circle cx="-1" cy="-1" r="3" class="st0" transform="translate(124 124)scale(15.5)"/><circle cx="-1" cy="-1" r="3" class="st0" transform="translate(806 124)scale(15.5)"/><circle cx="-1" cy="-1" r="3" class="st0" transform="translate(124 806)scale(15.5)"/><path d="M534.8 549.3H364.2c-8 0-14.4-6.4-14.4-14.4V364.2c0-8 6.4-14.4 14.4-14.4h170.7c8 0 14.4 6.4 14.4 14.4v170.7c0 8-6.4 14.4-14.5 14.4" style="fill:#42c815"/><path d="M450.8 365.8c-45.5 0-82.4 36.9-82.4 81.9 0 14.4 3.7 28.9 11.2 41.2l-13.9 41.7c0 .5 0 1.6.5 2.1s1.1.5 1.6.5h.5l43.3-13.9c11.8 6.4 25.2 9.6 39.1 9.6 45.5 0 82.4-36.9 82.4-81.9.1-44.3-36.8-81.2-82.3-81.2m0 147.1c-12.8 0-25.2-3.7-35.9-10.7-.5 0-.5-.5-1.1-.5h-.5l-21.9 7 7-20.9c0-.5 0-1.6-.5-2.1-8-11.2-12.3-24.1-12.3-38 0-35.9 29.4-64.7 65.3-64.7s65.3 28.9 65.3 64.7-29.5 65.2-65.4 65.2" class="st0"/><path d="M489.9 462.6c-.5 0-12.8-6.4-15-7-1.1-.5-1.6-.5-2.7-.5-1.6 0-3.2 1.1-4.3 2.7s-4.8 5.9-5.9 7.5l-.5.5s-2.1-.5-2.7-1.1c-13.4-5.9-23-19.3-24.6-21.9v-.5s.5-.5.5-1.1l2.1-2.1 1.1-1.1c1.1-1.1 1.6-2.1 2.1-3.2l.5-.5c1.1-2.7 0-4.8 0-5.4-.5-.5-5.4-12.8-5.9-14.4-1.1-3.2-3.2-4.8-5.4-4.8h-1.1c-1.1 0-7.5 1.1-10.2 2.7s-8 7.5-8 18.2c0 9.1 5.9 18.2 8.6 21.4l.5.5c9.6 14.4 21.9 24.6 34.2 30 11.8 4.8 17.7 5.4 20.9 5.4h3.7c4.3-.5 12.8-4.8 15-10.7 1.6-4.3 2.1-9.6 1.1-11.2-1.3-1.8-2.4-2.9-4-3.4" class="st0"/></svg>