<svg xmlns="http://www.w3.org/2000/svg" xml:space="preserve" viewBox="0 0 2167.9 677.2"><linearGradient id="a" x1="174.205" x2="174.205" y1="-1446.394" y2="-1825.374" gradientTransform="matrix(1 0 0 -1 0 -1442.444)" gradientUnits="userSpaceOnUse"><stop offset="0" style="stop-color:#fff"/><stop offset="1" style="stop-color:#c6c6c6"/></linearGradient><path d="M348.4 4v379l-99.1-.3V206.1l-78.5 75.1-73-72.2-.3 173.9H0V4l170.8 146z" style="fill:url(#a)"/><linearGradient id="b" x1="488.425" x2="488.425" y1="-1451.144" y2="-1825.114" gradientTransform="matrix(1 0 0 -1 0 -1442.444)" gradientUnits="userSpaceOnUse"><stop offset="0" style="stop-color:#fff"/><stop offset="1" style="stop-color:#c6c6c6"/></linearGradient><path d="M607.2 382.7H369.7V8.7h237.5V88H461.4v64.8h74.1l21.3 78.8h-95.4v72.2h145.7z" style="fill:url(#b)"/><linearGradient id="c" x1="802.63" x2="802.63" y1="-1446.394" y2="-1825.374" gradientTransform="matrix(1 0 0 -1 0 -1442.444)" gradientUnits="userSpaceOnUse"><stop offset="0" style="stop-color:#fff"/><stop offset="1" style="stop-color:#c6c6c6"/></linearGradient><path d="M976.8 4v379l-99.1-.3V206.1l-78.5 75.1-73-72.2-.3 173.9h-97.5V4l170.8 146z" style="fill:url(#c)"/><linearGradient id="d" x1="1116.835" x2="1116.835" y1="-1451.144" y2="-1825.114" gradientTransform="matrix(1 0 0 -1 0 -1442.444)" gradientUnits="userSpaceOnUse"><stop offset="0" style="stop-color:#fff"/><stop offset="1" style="stop-color:#c6c6c6"/></linearGradient><path d="M1235.6 382.7H998.1V8.7h237.5V88h-145.7v64.8h74.1l21.3 78.8h-95.4v72.2h145.7z" style="fill:url(#d)"/><linearGradient id="e" x1="1393.36" x2="1393.36" y1="-1451.144" y2="-1825.124" gradientTransform="matrix(1 0 0 -1 0 -1442.444)" gradientUnits="userSpaceOnUse"><stop offset="0" style="stop-color:#fff"/><stop offset="1" style="stop-color:#c6c6c6"/></linearGradient><path d="M1256.8 8.7h109.9c27.6 0 52.9 3.1 75.9 9.2 22.5 6 40.8 16.3 55.1 31.1 13.9 14.4 20.8 33.7 20.8 57.7 0 18.3-4.6 34.2-13.7 47.7q-13.65 20.55-37.2 30.6v1.3c9 3.5 17.3 8.3 25 14.2 7.4 5.8 14 12.7 19.8 20.8 5.4 7.7 9.8 16.4 12.9 26.1 3 9.8 4.5 20.2 4.5 31.1 0 31.3-11.6 56.4-34.8 75.4-23.4 19.1-58.7 28.7-105.9 28.7h-132.3zM1353 82v75.6h24.2c14.9 0 26.2-3.4 33.7-10.3 7.6-6.5 11.3-16 11.3-28.5 0-13.2-4.7-22.7-14.2-28.5-9.7-5.6-21.1-8.4-34.3-8.4zm0 149.1v78h25.6c36.7 0 55.1-12.7 55.1-38.2 0-16-4.9-26.6-14.8-31.9-9.7-5.3-23.6-7.9-41.6-7.9z" style="fill:url(#e)"/><linearGradient id="f" x1="1735.19" x2="1735.19" y1="-1442.444" y2="-1833.814" gradientTransform="matrix(1 0 0 -1 0 -1442.444)" gradientUnits="userSpaceOnUse"><stop offset="0" style="stop-color:#fff"/><stop offset="1" style="stop-color:#c6c6c6"/></linearGradient><path d="M1834.2 26.1c30.4 17.6 54.4 41.3 71.9 71.2 17.7 30.2 26.6 63.1 26.6 98.6s-8.9 68.4-26.6 98.3c-17.6 30-41.6 53.8-71.9 71.2-30.2 17.4-63.2 26.1-98.8 26.1s-68.4-8.7-98.8-26.1c-30.6-17.6-54.7-41.3-72.2-71.2-17.8-29.9-26.6-62.6-26.6-98.3s8.9-68.4 26.6-98.6c17.6-29.7 41.6-53.4 72.2-71.2Q1682.05 0 1735.3 0c53.25 0 68.6 8.7 98.9 26.1m-151.9 74.8q-24.45 15.3-38.7 41.1c-9.5 17-14.2 35-14.2 53.8s4.8 36.7 14.5 53.8c9.7 17.4 22.5 31.2 38.5 41.4 16.2 10.4 33.8 15.5 53 15.5s36.5-5.2 52.7-15.5q24-15.3 38.7-41.4c9.5-17.2 14.2-35.1 14.2-53.8s-4.7-36.7-14.2-53.8-22.3-30.7-38.5-41.1c-16.5-10.4-34.2-15.6-53-15.6s-36.8 5.3-53 15.6" style="fill:url(#f)"/><linearGradient id="g" x1="2030.235" x2="2030.235" y1="-1451.134" y2="-1825.114" gradientTransform="matrix(1 0 0 -1 0 -1442.444)" gradientUnits="userSpaceOnUse"><stop offset="0" style="stop-color:#fff"/><stop offset="1" style="stop-color:#c6c6c6"/></linearGradient><path d="M1987.4 93.8h-71.9l-22.9-85.1h253.3l22.1 85.1h-88.8v288.9h-91.7z" style="fill:url(#g)"/><path d="M1729.2 282.4c-.4 0-.9-.1-1.3-.2-2.4-.6-4.1-2.8-4.2-5.3l-.7-58.3h-30.6c-2 0-3.8-1-4.8-2.7s-1-3.8 0-5.5l50.9-89.8.2-.2c1.6-2.1 4.3-2.5 6.4-2l3.3.8 1.5 57.5 31.6.7c2 .1 3.7 1.1 4.7 2.8s1 3.7 0 5.4l-52.1 93.8c-1 2-2.9 3-4.9 3m-3-7.2s0 .1 0 0m-27.8-65.5h28.1c3 0 5.4 2.4 5.5 5.4l.6 48.6 42.9-77.3-29.1-.6c-2 0-5.4-1.4-5.4-6.4l-1.1-42.8zM224.9 677.2c-14.5 0-28-2.7-40.6-8.1s-23.6-12.9-33-22.4q-14.25-14.4-22.2-33.3c-5.3-12.6-8-26.2-8-40.7s2.7-28 8-40.6 12.6-23.6 22-33.2 20.3-17 32.7-22.3c12.5-5.3 25.9-8 40.4-8s28 2.7 40.4 8c12.5 5.3 23.4 12.7 32.9 22.3s16.8 20.7 22.2 33.3c5.3 12.6 8 26.2 8 40.7s-2.7 28.1-8 40.7c-5.3 12.7-12.7 23.7-22 33.2-9.4 9.5-20.3 16.9-32.7 22.3s-25.8 8.1-40.1 8.1m-.6-31.9c13.7 0 25.7-3.1 36.1-9.3 10.3-6.2 18.4-14.7 24.3-25.6s8.8-23.5 8.8-37.8q0-15.9-5.1-29.1c-3.4-8.8-8.2-16.4-14.3-22.9-6.2-6.5-13.5-11.4-21.9-14.9s-17.7-5.2-28-5.2c-13.5 0-25.4 3-35.8 9.1-10.3 6.1-18.4 14.5-24.3 25.3s-8.8 23.4-8.8 37.7q0 15.9 5.1 29.4c3.4 9 8.1 16.7 14.2 23 6.1 6.4 13.4 11.3 21.9 14.9 8.5 3.7 17.8 5.4 27.8 5.4m133 29v-139h31.9v139zm95.3 0v-80.2c0-9.3-2.9-16.9-8.8-22.9s-13.5-9-22.7-9c-6.2 0-11.7 1.4-16.5 4.1s-8.6 6.5-11.3 11.3-4.1 10.3-4.1 16.5l-12.5-7c0-10.6 2.3-20 7-28.2 4.6-8.2 11.1-14.7 19.3-19.4s17.4-7.1 27.7-7.1c10.4 0 19.7 2.7 27.8 8s14.5 12.2 19.1 20.6 7 17.1 7 26.2v87.2h-32zm128.9 2.9c-13.9 0-26.4-3.1-37.5-9.4s-19.9-14.9-26.4-25.9-9.7-23.4-9.7-37.1q0-20.55 9.6-36.9c6.4-10.9 15-19.6 25.9-25.9 10.9-6.4 23-9.6 36.4-9.6 12.9 0 24.4 3 34.3 9s17.8 14.2 23.5 24.6 8.5 22.3 8.5 35.6c0 2.3-.1 4.7-.4 7.1s-.7 5.1-1.3 8H530.2v-26.1h97.6L616 601c-.4-8.5-2-15.6-4.9-21.4s-7-10.2-12.3-13.3-11.8-4.6-19.6-4.6c-8.1 0-15.2 1.7-21.1 5.2-6 3.5-10.6 8.4-13.9 14.6-3.3 6.3-4.9 13.8-4.9 22.4s1.7 16.3 5.2 22.9 8.4 11.6 14.8 15.2 13.7 5.4 22 5.4c7.1 0 13.8-1.3 19.8-3.8 6.1-2.5 11.2-6.2 15.5-11l20.3 20.6q-10.2 11.85-24.6 18c-9.8 4-20 6-30.8 6m152.3-2.9V471.6H757l84.3 138.7h-15.1l84.3-138.7h23.2v202.8h-33.3V530.1l7.5 2-62.6 102.8h-23.2l-62.6-102.8 7.5-2v144.2zm255.8-164.5c-5.4 0-9.9-1.8-13.5-5.5s-5.4-8.2-5.4-13.6 1.8-9.9 5.4-13.6 8.1-5.5 13.5-5.5c5.6 0 10.1 1.8 13.6 5.5s5.2 8.2 5.2 13.6-1.7 9.9-5.2 13.6-8 5.5-13.6 5.5m-15.9 164.5v-139h31.9v139zm67.5 0V465.8h31.9v208.6h-31.9zm67.2 0V465.8h31.9v208.6h-31.9zm83.4-164.5c-5.4 0-9.9-1.8-13.5-5.5s-5.4-8.2-5.4-13.6 1.8-9.9 5.4-13.6 8.1-5.5 13.5-5.5c5.6 0 10.1 1.8 13.6 5.5s5.2 8.2 5.2 13.6-1.7 9.9-5.2 13.6-8 5.5-13.6 5.5m-15.9 164.5v-139h31.9v139zm131.2 2.9c-13.5 0-25.8-3.2-36.8-9.7s-19.7-15.2-26.2-26.2-9.7-23.3-9.7-36.8 3.2-25.7 9.7-36.5 15.2-19.5 26.2-25.9c11-6.5 23.3-9.7 36.8-9.7 13.7 0 26.1 3.2 37.1 9.6s19.7 15 26.2 25.9 9.7 23.1 9.7 36.6-3.2 25.8-9.7 36.8-15.2 19.7-26.2 26.2c-11.1 6.5-23.4 9.7-37.1 9.7m0-30.7q11.85 0 21-5.4c6.1-3.6 10.8-8.5 14.2-14.9s5.1-13.6 5.1-21.7-1.7-15.3-5.2-21.4c-3.5-6.2-8.2-11.1-14.2-14.6-6-3.6-12.9-5.4-20.9-5.4q-11.55 0-20.7 5.4c-6.1 3.6-10.8 8.5-14.2 14.6-3.4 6.2-5.1 13.3-5.1 21.4s1.7 15.4 5.1 21.7c3.4 6.4 8.1 11.3 14.2 14.9q9 5.4 20.7 5.4m99.3 27.8v-139h31.9v139zm95.3 0v-80.2c0-9.3-2.9-16.9-8.8-22.9s-13.5-9-22.7-9c-6.2 0-11.7 1.4-16.5 4.1s-8.6 6.5-11.3 11.3-4.1 10.3-4.1 16.5l-12.5-7c0-10.6 2.3-20 7-28.2 4.6-8.2 11.1-14.7 19.3-19.4s17.4-7.1 27.7-7.1c10.4 0 19.7 2.7 27.8 8s14.5 12.2 19.1 20.6 7 17.1 7 26.2v87.2h-32zm124.1-1.3V470.3h33.3V673zm22.9-76.4v-28.9h50.7c6.9 0 13.1-1.4 18.4-4.2s9.5-6.8 12.6-11.9 4.6-11.1 4.6-18.1-1.5-13-4.6-18.1-7.3-9.1-12.6-11.9-11.4-4.2-18.4-4.2h-50.7v-28.9h52.4c12.7 0 24.2 2.6 34.3 7.8s18.1 12.5 24 22 8.8 20.6 8.8 33.3-2.9 23.8-8.8 33.3-13.9 16.8-24 22-21.6 7.8-34.3 7.8zm147.6 76.4V534h31.8v139zm31.9-77.3-11-5.5c0-17.6 3.9-31.8 11.7-42.7s19.6-16.4 35.5-16.4c6.9 0 13.2 1.3 18.8 3.8s10.8 6.6 15.6 12.2l-20.8 21.4c-2.5-2.7-5.3-4.6-8.4-5.8s-6.7-1.7-10.7-1.7c-8.9 0-16.2 2.8-22 8.4-5.8 5.5-8.7 14.3-8.7 26.3m145.6 80.2c-13.5 0-25.8-3.2-36.8-9.7s-19.7-15.2-26.2-26.2-9.7-23.3-9.7-36.8 3.2-25.7 9.7-36.5 15.2-19.4 26.2-25.9 23.3-9.7 36.8-9.7c13.7 0 26.1 3.2 37.1 9.6s19.7 15 26.2 25.9 9.7 23.1 9.7 36.6-3.2 25.8-9.7 36.8-15.2 19.7-26.2 26.2c-11.1 6.4-23.4 9.7-37.1 9.7m0-30.7q11.85 0 21-5.4c6.1-3.6 10.8-8.5 14.2-14.9s5.1-13.6 5.1-21.7-1.7-15.2-5.2-21.4-8.2-11-14.2-14.6-12.9-5.4-20.8-5.4q-11.55 0-20.7 5.4c-6.1 3.6-10.8 8.4-14.2 14.6s-5.1 13.3-5.1 21.4 1.7 15.3 5.1 21.7 8.1 11.3 14.2 14.9c6 3.6 12.9 5.4 20.6 5.4" style="fill:#6880e6"/></svg>