<svg xmlns="http://www.w3.org/2000/svg" xmlns:xlink="http://www.w3.org/1999/xlink" xml:space="preserve" id="Camada_1" x="0" y="0" viewBox="0 0 1920 1280"><style>.st1{fill:none}</style><g id="Camada_2_00000171710471600455885220000009173732705268278185_"><defs><path id="SVGID_1_" d="M0 0h1920v1280H0z"/></defs><clipPath id="SVGID_00000070836491408500399660000002287615406671834040_"><use xlink:href="#SVGID_1_" style="overflow:visible"/></clipPath><g style="clip-path:url(#SVGID_00000070836491408500399660000002287615406671834040_)"><path d="M0 0h1920v1280H0z" class="st1"/><path d="M0 0h1920v1280H0z" class="st1"/><path d="M0 0h1920v1280H0z"/><radialGradient id="SVGID_00000182491190591389795530000003571999836330315671_" cx="1502.183" cy="-1124.185" r="675.4" gradientTransform="matrix(-.9571 -.5201 1.0542 -1.1426 4613.633 -514.252)" gradientUnits="userSpaceOnUse"><stop offset="0" style="stop-color:#6880e6"/><stop offset=".942" style="stop-color:#6880e6;stop-opacity:0"/></radialGradient><path d="M1265.2-304.7c406.4-439.7 1017-643.2 1363.7-454.5S2927.2-61 2520.7 378.7 1503.6 1021.9 1157 833.2 858.7 135.1 1265.2-304.7" style="opacity:.43;fill:url(#SVGID_00000182491190591389795530000003571999836330315671_)"/><radialGradient id="SVGID_00000044888057770846779480000015776135896794226598_" cx="1550" cy="590.268" r="675.4" fx="1478.188" fy="822.58" gradientTransform="matrix(1 0 0 1.1 112.4 651.721)" gradientUnits="userSpaceOnUse"><stop offset="0" style="stop-color:#6880e6"/><stop offset=".885" style="stop-color:#6880e6;stop-opacity:0"/></radialGradient><ellipse cx="1616.8" cy="1333.5" rx="656.8" ry="722.1" style="opacity:.54;fill:url(#SVGID_00000044888057770846779480000015776135896794226598_)"/><radialGradient id="SVGID_00000166645140859397310140000006812671287517345421_" cx="3484.829" cy="1024.84" r="675.4" gradientTransform="matrix(-1 0 0 -1.1 3505 2436.679)" gradientUnits="userSpaceOnUse"><stop offset="0" style="stop-color:#6880e6"/><stop offset=".801" style="stop-color:#6880e6;stop-opacity:0"/></radialGradient><ellipse cx="69.1" cy="1305" rx="656.8" ry="722.1" style="opacity:.7;fill:url(#SVGID_00000166645140859397310140000006812671287517345421_)"/><path d="M0 0h1920v1280H0z" class="st1"/><radialGradient id="SVGID_00000163758120704746351330000007887052918326569111_" cx="-788.636" cy="324.696" r="598.504" fx="-756.904" fy="335.279" gradientTransform="matrix(-.5201 .7345 -1.1426 -.809 130.523 1032.445)" gradientUnits="userSpaceOnUse"><stop offset=".18" style="stop-color:#6880e6"/><stop offset="1" style="stop-color:#6880e6;stop-opacity:0"/></radialGradient><path d="M-152.3 752.4C-592 440.5-795.5-28.1-606.8-294.1S91.4-523 531.1-211.1s643.2 780.4 454.5 1046.4-698.1 228.9-1137.9-82.9" style="opacity:.31;fill:url(#SVGID_00000163758120704746351330000007887052918326569111_)"/></g></g></svg>