<svg xmlns="http://www.w3.org/2000/svg" xmlns:xlink="http://www.w3.org/1999/xlink" xml:space="preserve" id="Camada_1" x="0" y="0" viewBox="0 0 1280 1920"><style>.st1{fill:none}</style><g id="Camada_2_00000171710471600455885220000009173732705268278185_"><defs><path id="SVGID_1_" d="M0 0h1280v1920H0z"/></defs><clipPath id="SVGID_00000018944494951496692350000016794924429856966535_"><use xlink:href="#SVGID_1_" style="overflow:visible"/></clipPath><g style="clip-path:url(#SVGID_00000018944494951496692350000016794924429856966535_)"><path d="M0 0h1280v1920H0z" class="st1"/><path d="M0 0h1280v1920H0z" class="st1"/><path d="M0 0h1280v1920H0z"/><radialGradient id="SVGID_00000135686474031123374380000007544717713244068537_" cx="1439.014" cy="-1113.614" r="675.4" gradientTransform="matrix(.5201 -.9571 1.1426 1.0542 1815.027 4542.03)" gradientUnits="userSpaceOnUse"><stop offset="0" style="stop-color:#6880e6"/><stop offset=".942" style="stop-color:#6880e6;stop-opacity:0"/></radialGradient><path d="M1584.7 1265.2c439.7 406.4 643.2 1017 454.5 1363.7S1341 2927.2 901.3 2520.7 258.1 1503.6 446.8 1157s698.1-298.3 1137.9 108.2" style="opacity:.43;fill:url(#SVGID_00000135686474031123374380000007544717713244068537_)"/><radialGradient id="SVGID_00000046341162745335840590000002499999203220211841_" cx="659.944" cy="1110.718" r="675.4" fx="588.132" fy="1343.03" gradientTransform="matrix(0 1 -1.1 0 1200.774 1002.456)" gradientUnits="userSpaceOnUse"><stop offset="0" style="stop-color:#6880e6"/><stop offset=".885" style="stop-color:#6880e6;stop-opacity:0"/></radialGradient><ellipse cx="-53.5" cy="1616.8" rx="722.1" ry="656.8" style="opacity:.54;fill:url(#SVGID_00000046341162745335840590000002499999203220211841_)"/><radialGradient id="SVGID_00000132789781910813683690000018363865745540343467_" cx="3736.885" cy="1144.39" r="675.4" gradientTransform="matrix(0 -1 1.1 0 -1288.184 3757.056)" gradientUnits="userSpaceOnUse"><stop offset="0" style="stop-color:#6880e6"/><stop offset=".801" style="stop-color:#6880e6;stop-opacity:0"/></radialGradient><ellipse cx="-25" cy="69.1" rx="722.1" ry="656.8" style="opacity:.7;fill:url(#SVGID_00000132789781910813683690000018363865745540343467_)"/><path d="M0 0h1280v1920H0z" class="st1"/><radialGradient id="SVGID_00000010271001565126167860000015148928387739717281_" cx="-541.031" cy="886.569" r="598.504" fx="-509.299" fy="897.153" gradientTransform="matrix(-.7345 -.5201 .809 -1.1426 -25.135 901.3)" gradientUnits="userSpaceOnUse"><stop offset=".18" style="stop-color:#6880e6"/><stop offset="1" style="stop-color:#6880e6;stop-opacity:0"/></radialGradient><path d="M527.6-152.3C839.5-592 1308.1-795.5 1574.1-606.8s228.9 698.2-83 1137.9-780.4 643.2-1046.4 454.5-228.9-698.1 82.9-1137.9" style="opacity:.31;fill:url(#SVGID_00000010271001565126167860000015148928387739717281_)"/></g></g></svg>