<?xml version="1.0" encoding="UTF-8"?><svg id="Camada_1" data-name="Camada 1" xmlns="http://www.w3.org/2000/svg" viewBox="0 0 20 20"><defs><style>.cls-1 {
        fill: #fff;
      }</style></defs><path d="M16.41,1.99H3.59c-.89,0-1.6.72-1.6,1.6v12.81c0,.88.72,1.6,1.6,1.6h12.81c.88,0,1.6-.72,1.6-1.6V3.59c0-.88-.72-1.6-1.6-1.6Z"/><path class="cls-1" d="M18,0H2C.9,0,0,.9,0,2v15.99C0,19.1.9,20,2,20h15.99c1.11,0,2-.9,2-2V2c0-1.11-.9-2-2-2ZM15.86,13.52c-1.35,2.25-3.97,3.65-6.85,3.25s-5.06-2.51-5.67-5.23C2.33,7.11,5.82,3.1,10.1,3.16c2.44.04,4.58,1.36,5.76,3.31l-.04.17-1.61.93-.17-.04c-.83-1.36-2.33-2.26-4.04-2.26-2.64,0-4.77,2.16-4.74,4.81.04,2.58,2.17,4.67,4.74,4.67,1.71,0,3.2-.91,4.03-2.26l.17-.04,1.61.93c.06.04.08.11.05.16ZM16.77,10.95c0,.06-.06.1-.12.1H7.55c-.06,0-.11-.05-.12-.1-.05-.31-.06-.63-.06-.95s.02-.64.06-.95c0-.06.06-.1.12-.1h9.1c.06,0,.11.05.12.1.05.31.06.63.06.95s-.02.64-.06.95Z"/></svg>