<?xml version="1.0" encoding="utf-8"?><!--Generator: Adobe Illustrator 27.9.0, SVG Export Plug-In . SVG Version: 6.00 Build 0)--><svg version="1.1" id="Camada_1" xmlns="http://www.w3.org/2000/svg" xmlns:xlink="http://www.w3.org/1999/xlink" x="0px" y="0px" viewBox="0 0 85.4 20" style="enable-background:new 0 0 85.4 20" xml:space="preserve"><style type="text/css">.st0{fill:#FFFFFF;}
	.st1{fill:#020303;}</style><g><path class="st0" d="M26.8,6.3c-2.1,0-3.6,1.6-3.6,3.7s1.6,3.7,3.7,3.7c1.1,0,2.1-0.4,2.8-1.2l-0.9-0.9c-0.5,0.6-1.2,0.8-2,0.8
		c-1.3,0-2.2-0.8-2.4-1.9h5.5c0.1-0.3,0.1-0.5,0.1-0.7C30.1,7.8,28.7,6.3,26.8,6.3L26.8,6.3z M24.5,9.4c0.2-1.1,1.1-1.8,2.2-1.8
		s1.9,0.7,2.1,1.8C28.8,9.4,24.5,9.4,24.5,9.4z M39.8,6.3c-1,0-1.9,0.5-2.4,1.3c-0.5-0.8-1.3-1.3-2.3-1.3c-0.9,0-1.6,0.4-2.1,1V6.5
		h-1.3v7.1h1.3V9.3h0c0-1,0.8-1.7,1.7-1.7s1.7,0.6,1.7,1.7v4.3h1.3V9c0.1-0.9,0.8-1.4,1.7-1.4c1,0,1.7,0.6,1.7,1.7v4.3h1.3V9
		C42.5,7.4,41.3,6.3,39.8,6.3L39.8,6.3z M48,6.3c-1,0-1.9,0.4-2.4,1.1v-1h-1.3v10.4h1.3v-4.3c0.5,0.7,1.4,1.1,2.4,1.1
		c1.9,0,3.4-1.6,3.4-3.7S50,6.3,48,6.3z M47.8,12.4c-1.3,0-2.2-1-2.2-2.4s0.9-2.4,2.2-2.4s2.3,1,2.3,2.4S49.2,12.4,47.8,12.4z
		 M54.3,6.5H53v7.1h1.3V6.5z M59.6,6.3c-0.9,0-1.5,0.4-1.9,1V6.5h-1.3v7.1h1.3v-4c0-1.3,0.7-1.9,1.7-1.9c0.5,0,0.8,0.1,1.1,0.4
		l0.9-0.9C60.9,6.6,60.3,6.3,59.6,6.3z M63.7,6.5h-1.3v7.1h1.3V6.5z M68.8,7.6c0.8,0,1.4,0.3,1.8,0.8l0.9-0.9
		c-0.7-0.8-1.6-1.2-2.7-1.2c-2.1,0-3.7,1.6-3.7,3.7s1.6,3.7,3.7,3.7c1.1,0,2.1-0.4,2.7-1.2l-0.9-0.9c-0.4,0.5-1.1,0.8-1.8,0.8
		c-1.3,0-2.3-1-2.3-2.4S67.5,7.6,68.8,7.6L68.8,7.6z M77.4,10.5c0,1.2-0.6,1.9-1.7,1.9s-1.7-0.7-1.7-1.9V6.5h-1.3v4.1
		c0,1.8,1.2,3.1,3,3.1s3-1.3,3-3.1V6.5h-1.3L77.4,10.5L77.4,10.5z M81.7,8.3c0-0.5,0.4-0.8,1.2-0.8s1.3,0.3,1.7,0.8l0.9-0.9
		c-0.6-0.8-1.4-1.2-2.6-1.2c-1.6,0-2.5,0.8-2.5,2.1c0,2.6,3.8,1.7,3.8,3.2c0,0.5-0.5,0.8-1.3,0.8s-1.5-0.3-2-0.9L80,12.4
		c0.7,0.8,1.7,1.3,2.9,1.3c1.6,0,2.6-0.8,2.6-2.2C85.4,8.9,81.7,9.7,81.7,8.3L81.7,8.3z M63,3.8c-0.4,0-0.7,0.3-0.7,0.7
		s0.3,0.8,0.7,0.8s0.7-0.3,0.7-0.8S63.4,3.8,63,3.8z M53.7,3.8c-0.4,0-0.7,0.3-0.7,0.7s0.3,0.8,0.7,0.8s0.7-0.3,0.7-0.8
		S54.1,3.8,53.7,3.8z"/><path class="st1" d="M17.2,1H2.8C1.8,1,1,1.8,1,2.8v14.4c0,1,0.8,1.8,1.8,1.8h14.4c1,0,1.8-0.8,1.8-1.8V2.8C19,1.8,18.2,1,17.2,1z"/><path class="st0" d="M18,0H2C0.9,0,0,0.9,0,2v16c0,1.1,0.9,2,2,2h16c1.1,0,2-0.9,2-2V2C20,0.9,19.1,0,18,0L18,0z M15.9,13.5
		c-1.2,2.1-3.5,3.3-5.9,3.3c-3.8,0-6.8-3.1-6.8-6.9c0-3.8,3.2-6.9,6.9-6.8c2.4,0,4.6,1.4,5.8,3.3c0,0.1,0,0.1-0.1,0.2l-1.6,0.9
		c-0.1,0-0.1,0-0.2,0c-0.9-1.4-2.4-2.3-4.1-2.3c-2.6,0-4.8,2.2-4.7,4.8c0,2.6,2.2,4.7,4.7,4.7c1.7,0,3.2-0.9,4-2.3
		c0-0.1,0.1-0.1,0.2,0l1.6,0.9C15.9,13.4,15.9,13.5,15.9,13.5L15.9,13.5z M16.8,10.9c0,0.1-0.1,0.1-0.1,0.1H7.5
		c-0.1,0-0.1-0.1-0.1-0.1c-0.1-0.3-0.1-0.6-0.1-0.9s0-0.6,0.1-0.9c0-0.1,0.1-0.1,0.1-0.1h9.1c0.1,0,0.1,0.1,0.1,0.1
		c0,0.3,0.1,0.6,0.1,0.9S16.8,10.6,16.8,10.9z"/></g></svg>