<?xml version="1.0" encoding="utf-8"?><!--Generator: Adobe Illustrator 27.9.0, SVG Export Plug-In . SVG Version: 6.00 Build 0)--><svg version="1.1" xmlns="http://www.w3.org/2000/svg" xmlns:xlink="http://www.w3.org/1999/xlink" x="0px" y="0px" viewBox="0 0 74.8 74.8" style="enable-background:new 0 0 74.8 74.8" xml:space="preserve"><g><circle cx="21.9" cy="1.3" r="1.3"/><circle cx="24.5" cy="1.3" r="1.3"/><circle cx="34.9" cy="1.3" r="1.3"/><circle cx="45.2" cy="1.3" r="1.3"/><circle cx="47.7" cy="1.3" r="1.3"/><circle cx="21.9" cy="3.9" r="1.3"/><circle cx="32.3" cy="3.9" r="1.3"/><circle cx="34.9" cy="3.9" r="1.3"/><circle cx="45.2" cy="3.9" r="1.3"/><circle cx="21.9" cy="6.4" r="1.3"/><circle cx="24.5" cy="6.4" r="1.3"/><circle cx="27.1" cy="6.4" r="1.3"/><circle cx="29.7" cy="6.4" r="1.3"/><circle cx="34.9" cy="6.4" r="1.3"/><circle cx="37.4" cy="6.4" r="1.3"/><ellipse cx="40" cy="6.4" rx="1.3" ry="1.3"/><circle cx="47.7" cy="6.4" r="1.3"/><circle cx="29.7" cy="9" r="1.3"/><circle cx="37.4" cy="9" r="1.3"/><circle cx="45.2" cy="9" r="1.3"/><circle cx="32.3" cy="11.6" r="1.3"/><circle cx="34.9" cy="11.6" r="1.3"/><ellipse cx="40" cy="11.6" rx="1.3" ry="1.3"/><circle cx="45.2" cy="11.6" r="1.3"/><circle cx="47.7" cy="11.6" r="1.3"/><circle cx="50.3" cy="11.6" r="1.3"/><circle cx="21.9" cy="14.2" r="1.3"/><circle cx="24.5" cy="14.2" r="1.3"/><circle cx="29.7" cy="14.2" r="1.3"/><circle cx="37.4" cy="14.2" r="1.3"/><circle cx="42.6" cy="14.2" r="1.3"/><circle cx="45.2" cy="14.2" r="1.3"/><circle cx="52.9" cy="14.2" r="1.3"/><circle cx="21.9" cy="16.7" r="1.3"/><circle cx="27.1" cy="16.7" r="1.3"/><circle cx="32.3" cy="16.7" r="1.3"/><circle cx="37.4" cy="16.7" r="1.3"/><circle cx="42.6" cy="16.7" r="1.3"/><circle cx="47.7" cy="16.7" r="1.3"/><circle cx="52.9" cy="16.7" r="1.3"/><circle cx="21.9" cy="19.3" r="1.3"/><circle cx="29.7" cy="19.3" r="1.3"/><circle cx="32.3" cy="19.3" r="1.3"/><circle cx="34.9" cy="19.3" r="1.3"/><circle cx="37.4" cy="19.3" r="1.3"/><ellipse cx="40" cy="19.3" rx="1.3" ry="1.3"/><circle cx="42.6" cy="19.3" r="1.3"/><circle cx="45.2" cy="19.3" r="1.3"/><circle cx="47.7" cy="19.3" r="1.3"/><circle cx="6.4" cy="21.9" r="1.3"/><circle cx="9" cy="21.9" r="1.3"/><circle cx="11.6" cy="21.9" r="1.3"/><circle cx="16.8" cy="21.9" r="1.3"/><circle cx="21.9" cy="21.9" r="1.3"/><circle cx="29.7" cy="21.9" r="1.3"/><circle cx="37.4" cy="21.9" r="1.3"/><ellipse cx="40" cy="21.9" rx="1.3" ry="1.3"/><circle cx="52.9" cy="21.9" r="1.3"/><circle cx="55.5" cy="21.9" r="1.3"/><circle cx="58" cy="21.9" r="1.3"/><circle cx="60.6" cy="21.9" r="1.3"/><circle cx="68.3" cy="21.9" r="1.3"/><circle cx="70.9" cy="21.9" r="1.3"/><circle cx="73.5" cy="21.9" r="1.3"/><circle cx="6.4" cy="24.5" r="1.3"/><circle cx="14.2" cy="24.5" r="1.3"/><circle cx="19.4" cy="24.5" r="1.3"/><circle cx="32.3" cy="24.5" r="1.3"/><circle cx="42.6" cy="24.5" r="1.3"/><circle cx="47.7" cy="24.5" r="1.3"/><circle cx="50.3" cy="24.5" r="1.3"/><circle cx="55.5" cy="24.5" r="1.3"/><circle cx="58" cy="24.5" r="1.3"/><circle cx="60.6" cy="24.5" r="1.3"/><circle cx="73.5" cy="24.5" r="1.3"/><circle cx="6.4" cy="27.1" r="1.3"/><circle cx="9" cy="27.1" r="1.3"/><circle cx="11.6" cy="27.1" r="1.3"/><circle cx="16.8" cy="27.1" r="1.3"/><circle cx="19.4" cy="27.1" r="1.3"/><circle cx="21.9" cy="27.1" r="1.3"/><circle cx="24.5" cy="27.1" r="1.3"/><circle cx="29.7" cy="27.1" r="1.3"/><circle cx="32.3" cy="27.1" r="1.3"/><circle cx="34.9" cy="27.1" r="1.3"/><circle cx="37.4" cy="27.1" r="1.3"/><circle cx="47.7" cy="27.1" r="1.3"/><circle cx="55.5" cy="27.1" r="1.3"/><circle cx="58" cy="27.1" r="1.3"/><circle cx="63.2" cy="27.1" r="1.3"/><circle cx="3.9" cy="29.7" r="1.3"/><circle cx="14.2" cy="29.7" r="1.3"/><circle cx="21.9" cy="29.7" r="1.3"/><circle cx="24.5" cy="29.7" r="1.3"/><circle cx="29.7" cy="29.7" r="1.3"/><circle cx="34.9" cy="29.7" r="1.3"/><ellipse cx="40" cy="29.7" rx="1.3" ry="1.3"/><circle cx="42.6" cy="29.7" r="1.3"/><circle cx="45.2" cy="29.7" r="1.3"/><circle cx="50.3" cy="29.7" r="1.3"/><circle cx="55.5" cy="29.7" r="1.3"/><circle cx="58" cy="29.7" r="1.3"/><circle cx="60.6" cy="29.7" r="1.3"/><circle cx="63.2" cy="29.7" r="1.3"/><circle cx="70.9" cy="29.7" r="1.3"/><circle cx="6.4" cy="32.2" r="1.3"/><circle cx="11.6" cy="32.2" r="1.3"/><circle cx="14.2" cy="32.2" r="1.3"/><circle cx="16.8" cy="32.2" r="1.3"/><circle cx="21.9" cy="32.2" r="1.3"/><circle cx="27.1" cy="32.2" r="1.3"/><circle cx="34.9" cy="32.2" r="1.3"/><ellipse cx="40" cy="32.2" rx="1.3" ry="1.3"/><circle cx="42.6" cy="32.2" r="1.3"/><circle cx="45.2" cy="32.2" r="1.3"/><circle cx="47.7" cy="32.2" r="1.3"/><circle cx="55.5" cy="32.2" r="1.3"/><circle cx="60.6" cy="32.2" r="1.3"/><circle cx="70.9" cy="32.2" r="1.3"/><circle cx="73.5" cy="32.2" r="1.3"/><circle cx="6.4" cy="34.8" r="1.3"/><circle cx="9" cy="34.8" r="1.3"/><circle cx="19.4" cy="34.8" r="1.3"/><circle cx="21.9" cy="34.8" r="1.3"/><circle cx="24.5" cy="34.8" r="1.3"/><circle cx="29.7" cy="34.8" r="1.3"/><ellipse cx="40" cy="34.8" rx="1.3" ry="1.3"/><circle cx="42.6" cy="34.8" r="1.3"/><circle cx="47.7" cy="34.8" r="1.3"/><circle cx="50.3" cy="34.8" r="1.3"/><circle cx="52.9" cy="34.8" r="1.3"/><circle cx="55.5" cy="34.8" r="1.3"/><circle cx="58" cy="34.8" r="1.3"/><circle cx="63.2" cy="34.8" r="1.3"/><circle cx="65.8" cy="34.8" r="1.3"/><circle cx="70.9" cy="34.8" r="1.3"/><circle cx="73.5" cy="34.8" r="1.3"/><circle cx="1.3" cy="37.4" r="1.3"/><circle cx="11.6" cy="37.4" r="1.3"/><circle cx="16.8" cy="37.4" r="1.3"/><circle cx="19.4" cy="37.4" r="1.3"/><circle cx="21.9" cy="37.4" r="1.3"/><circle cx="24.5" cy="37.4" r="1.3"/><circle cx="27.1" cy="37.4" r="1.3"/><circle cx="29.7" cy="37.4" r="1.3"/><circle cx="32.3" cy="37.4" r="1.3"/><circle cx="34.9" cy="37.4" r="1.3"/><circle cx="37.4" cy="37.4" r="1.3"/><circle cx="42.6" cy="37.4" r="1.3"/><circle cx="45.2" cy="37.4" r="1.3"/><circle cx="47.7" cy="37.4" r="1.3"/><circle cx="52.9" cy="37.4" r="1.3"/><circle cx="60.6" cy="37.4" r="1.3"/><circle cx="70.9" cy="37.4" r="1.3"/><circle cx="3.9" cy="40" r="1.3"/><circle cx="9" cy="40" r="1.3"/><circle cx="24.5" cy="40" r="1.3"/><circle cx="27.1" cy="40" r="1.3"/><circle cx="29.7" cy="40" r="1.3"/><circle cx="32.3" cy="40" r="1.3"/><circle cx="34.9" cy="40" r="1.3"/><circle cx="42.6" cy="40" r="1.3"/><circle cx="50.3" cy="40" r="1.3"/><circle cx="52.9" cy="40" r="1.3"/><circle cx="55.5" cy="40" r="1.3"/><circle cx="58" cy="40" r="1.3"/><circle cx="63.2" cy="40" r="1.3"/><circle cx="65.8" cy="40" r="1.3"/><circle cx="1.3" cy="42.6" r="1.3"/><circle cx="3.9" cy="42.6" r="1.3"/><circle cx="6.4" cy="42.6" r="1.3"/><circle cx="9" cy="42.6" r="1.3"/><circle cx="11.6" cy="42.6" r="1.3"/><circle cx="14.2" cy="42.6" r="1.3"/><circle cx="16.8" cy="42.6" r="1.3"/><circle cx="19.4" cy="42.6" r="1.3"/><circle cx="32.3" cy="42.6" r="1.3"/><circle cx="34.9" cy="42.6" r="1.3"/><circle cx="37.4" cy="42.6" r="1.3"/><ellipse transform="matrix(0.6 -0.8 0.8 0.6 -18.0562 49.0062)" cx="40" cy="42.6" rx="1.3" ry="1.3"/><circle cx="52.9" cy="42.6" r="1.3"/><circle cx="55.5" cy="42.6" r="1.3"/><circle cx="63.2" cy="42.6" r="1.3"/><circle cx="65.8" cy="42.6" r="1.3"/><circle cx="68.3" cy="42.6" r="1.3"/><circle cx="1.3" cy="45.1" r="1.3"/><circle cx="3.9" cy="45.1" r="1.3"/><circle cx="6.4" cy="45.1" r="1.3"/><circle cx="11.6" cy="45.1" r="1.3"/><circle cx="14.2" cy="45.1" r="1.3"/><circle cx="19.4" cy="45.1" r="1.3"/><circle cx="24.5" cy="45.1" r="1.3"/><circle cx="29.7" cy="45.1" r="1.3"/><ellipse transform="matrix(0.6 -0.8 0.8 0.6 -20.0811 50.0186)" cx="40" cy="45.1" rx="1.3" ry="1.3"/><circle cx="52.9" cy="45.1" r="1.3"/><circle cx="55.5" cy="45.1" r="1.3"/><circle cx="58" cy="45.1" r="1.3"/><circle cx="60.6" cy="45.1" r="1.3"/><circle cx="65.8" cy="45.1" r="1.3"/><circle cx="68.3" cy="45.1" r="1.3"/><circle cx="70.9" cy="45.1" r="1.3"/><circle cx="73.5" cy="45.1" r="1.3"/><circle cx="1.3" cy="47.7" r="1.3"/><circle cx="14.2" cy="47.7" r="1.3"/><circle cx="16.8" cy="47.7" r="1.3"/><circle cx="21.9" cy="47.7" r="1.3"/><circle cx="24.5" cy="47.7" r="1.3"/><circle cx="27.1" cy="47.7" r="1.3"/><circle cx="42.6" cy="47.7" r="1.3"/><circle cx="47.7" cy="47.7" r="1.3"/><circle cx="58" cy="47.7" r="1.3"/><circle cx="65.8" cy="47.7" r="1.3"/><circle cx="1.3" cy="50.3" r="1.3"/><circle cx="6.4" cy="50.3" r="1.3"/><circle cx="11.6" cy="50.3" r="1.3"/><circle cx="24.5" cy="50.3" r="1.3"/><circle cx="27.1" cy="50.3" r="1.3"/><ellipse transform="matrix(0.6 -0.8 0.8 0.6 -24.2229 52.0894)" cx="40" cy="50.3" rx="1.3" ry="1.3"/><circle cx="47.7" cy="50.3" r="1.3"/><circle cx="50.3" cy="50.3" r="1.3"/><circle cx="52.9" cy="50.3" r="1.3"/><circle cx="58" cy="50.3" r="1.3"/><circle cx="60.6" cy="50.3" r="1.3"/><circle cx="63.2" cy="50.3" r="1.3"/><circle cx="65.8" cy="50.3" r="1.3"/><circle cx="1.3" cy="52.9" r="1.3"/><circle cx="9" cy="52.9" r="1.3"/><circle cx="14.2" cy="52.9" r="1.3"/><circle cx="16.8" cy="52.9" r="1.3"/><circle cx="19.4" cy="52.9" r="1.3"/><circle cx="21.9" cy="52.9" r="1.3"/><circle cx="27.1" cy="52.9" r="1.3"/><circle cx="32.3" cy="52.9" r="1.3"/><ellipse transform="matrix(0.6 -0.8 0.8 0.6 -26.2939 53.1249)" cx="40" cy="52.9" rx="1.3" ry="1.3"/><circle cx="47.7" cy="52.9" r="1.3"/><circle cx="50.3" cy="52.9" r="1.3"/><circle cx="52.9" cy="52.9" r="1.3"/><circle cx="55.5" cy="52.9" r="1.3"/><circle cx="58" cy="52.9" r="1.3"/><circle cx="60.6" cy="52.9" r="1.3"/><circle cx="63.2" cy="52.9" r="1.3"/><circle cx="68.3" cy="52.9" r="1.3"/><circle cx="73.5" cy="52.9" r="1.3"/><circle cx="21.9" cy="55.5" r="1.3"/><circle cx="27.1" cy="55.5" r="1.3"/><circle cx="29.7" cy="55.5" r="1.3"/><circle cx="32.3" cy="55.5" r="1.3"/><circle cx="37.4" cy="55.5" r="1.3"/><circle cx="47.7" cy="55.5" r="1.3"/><circle cx="50.3" cy="55.5" r="1.3"/><circle cx="52.9" cy="55.5" r="1.3"/><circle cx="63.2" cy="55.5" r="1.3"/><circle cx="65.8" cy="55.5" r="1.3"/><circle cx="70.9" cy="55.5" r="1.3"/><circle cx="73.5" cy="55.5" r="1.3"/><circle cx="27.1" cy="58" r="1.3"/><circle cx="32.3" cy="58" r="1.3"/><circle cx="37.4" cy="58" r="1.3"/><circle cx="45.2" cy="58" r="1.3"/><circle cx="50.3" cy="58" r="1.3"/><circle cx="52.9" cy="58" r="1.3"/><circle cx="58" cy="58" r="1.3"/><circle cx="63.2" cy="58" r="1.3"/><circle cx="24.5" cy="60.6" r="1.3"/><circle cx="29.7" cy="60.6" r="1.3"/><circle cx="34.9" cy="60.6" r="1.3"/><circle cx="50.3" cy="60.6" r="1.3"/><circle cx="52.9" cy="60.6" r="1.3"/><circle cx="63.2" cy="60.6" r="1.3"/><circle cx="65.8" cy="60.6" r="1.3"/><circle cx="21.9" cy="63.2" r="1.3"/><circle cx="24.5" cy="63.2" r="1.3"/><circle cx="32.3" cy="63.2" r="1.3"/><circle cx="34.9" cy="63.2" r="1.3"/><circle cx="37.4" cy="63.2" r="1.3"/><ellipse transform="matrix(0.6 -0.8 0.8 0.6 -34.5314 57.2434)" cx="40" cy="63.2" rx="1.3" ry="1.3"/><circle cx="47.7" cy="63.2" r="1.3"/><circle cx="52.9" cy="63.2" r="1.3"/><circle cx="55.5" cy="63.2" r="1.3"/><circle cx="58" cy="63.2" r="1.3"/><circle cx="60.6" cy="63.2" r="1.3"/><circle cx="63.2" cy="63.2" r="1.3"/><circle cx="65.8" cy="63.2" r="1.3"/><circle cx="68.3" cy="63.2" r="1.3"/><circle cx="73.5" cy="63.2" r="1.3"/><circle cx="21.9" cy="65.7" r="1.3"/><circle cx="24.5" cy="65.7" r="1.3"/><circle cx="27.1" cy="65.7" r="1.3"/><circle cx="29.7" cy="65.7" r="1.3"/><circle cx="34.9" cy="65.7" r="1.3"/><circle cx="37.4" cy="65.7" r="1.3"/><ellipse transform="matrix(0.6 -0.8 0.8 0.6 -36.6023 58.2789)" cx="40" cy="65.7" rx="1.3" ry="1.3"/><circle cx="50.3" cy="65.7" r="1.3"/><circle cx="52.9" cy="65.7" r="1.3"/><circle cx="55.5" cy="65.7" r="1.3"/><circle cx="60.6" cy="65.7" r="1.3"/><circle cx="70.9" cy="65.7" r="1.3"/><circle cx="21.9" cy="68.3" r="1.3"/><circle cx="24.5" cy="68.3" r="1.3"/><circle cx="32.3" cy="68.3" r="1.3"/><circle cx="34.9" cy="68.3" r="1.3"/><circle cx="42.6" cy="68.3" r="1.3"/><circle cx="45.2" cy="68.3" r="1.3"/><circle cx="47.7" cy="68.3" r="1.3"/><circle cx="50.3" cy="68.3" r="1.3"/><circle cx="52.9" cy="68.3" r="1.3"/><circle cx="55.5" cy="68.3" r="1.3"/><circle cx="58" cy="68.3" r="1.3"/><circle cx="60.6" cy="68.3" r="1.3"/><circle cx="63.2" cy="68.3" r="1.3"/><circle cx="68.3" cy="68.3" r="1.3"/><circle cx="70.9" cy="68.3" r="1.3"/><circle cx="24.5" cy="70.9" r="1.3"/><circle cx="45.2" cy="70.9" r="1.3"/><circle cx="52.9" cy="70.9" r="1.3"/><circle cx="55.5" cy="70.9" r="1.3"/><circle cx="58" cy="70.9" r="1.3"/><circle cx="63.2" cy="70.9" r="1.3"/><circle cx="70.9" cy="70.9" r="1.3"/><circle cx="27.1" cy="73.5" r="1.3"/><circle cx="32.3" cy="73.5" r="1.3"/><circle cx="37.4" cy="73.5" r="1.3"/><circle cx="45.2" cy="73.5" r="1.3"/><circle cx="47.7" cy="73.5" r="1.3"/><circle cx="52.9" cy="73.5" r="1.3"/><circle cx="55.5" cy="73.5" r="1.3"/><circle cx="58" cy="73.5" r="1.3"/><circle cx="63.2" cy="73.5" r="1.3"/><path d="M0,9L0,9c0,5,4,9,9,9l0,0c5,0,9-4,9-9l0,0c0-5-4-9-9-9l0,0C4,0,0,4,0,9z M9,15.5L9,15.5c-3.6,0-6.4-2.8-6.4-6.4l0,0
		c0-3.6,2.8-6.4,6.4-6.4l0,0c3.6,0,6.4,2.8,6.4,6.4l0,0C15.5,12.7,12.7,15.5,9,15.5z"/><path d="M56.8,9L56.8,9c0,5,4,9,9,9l0,0c5,0,9-4,9-9l0,0c-0.1-5.1-4-9-9-9l0,0C60.7,0,56.8,4,56.8,9z M65.8,15.5L65.8,15.5
		c-3.6,0-6.4-2.8-6.4-6.4l0,0c0-3.6,2.8-6.4,6.4-6.4l0,0c3.6,0,6.4,2.8,6.4,6.4l0,0C72.2,12.7,69.4,15.5,65.8,15.5z"/><path d="M0,65.7L0,65.7c0,5,4,9,9,9l0,0c5,0,9-4,9-9l0,0c0-5-4-9-9-9l0,0C4,56.7,0,60.7,0,65.7z M9,72.2L9,72.2
		c-3.6,0-6.4-2.8-6.4-6.4l0,0c0-3.6,2.8-6.4,6.4-6.4l0,0c3.6,0,6.4,2.8,6.4,6.4l0,0C15.5,69.4,12.7,72.2,9,72.2z"/><circle cx="9" cy="9" r="3.9"/><circle cx="65.8" cy="9" r="3.9"/><circle cx="9" cy="65.7" r="3.9"/><rect x="34.7" y="36.4" width="8.7" height="1.9"/></g></svg>