<?xml version="1.0" encoding="utf-8"?><!--Generator: Adobe Illustrator 27.9.0, SVG Export Plug-In . SVG Version: 6.00 Build 0)--><svg version="1.1" id="icons" xmlns="http://www.w3.org/2000/svg" xmlns:xlink="http://www.w3.org/1999/xlink" x="0px" y="0px" viewBox="0 0 322 131" style="enable-background:new 0 0 322 131" xml:space="preserve"><style type="text/css">.st0{fill:#FFFFFF;}
	.st1{fill:#E6363E;}
	.st2{fill:#020202;}
	.st3{fill:#030304;}</style><path class="st0" d="M115.6,54.8c-1.7,0-3.2-1.1-3.7-2.6h-4.1c-0.9,0-1.6-0.3-2.1-0.9c-0.6-0.6-0.8-1.5-0.5-2.7
	c0.2-1.1,0.9-2.2,1.5-3.2c0.1-0.1,0.2-0.3,0.3-0.5c0.1-0.2,0.3-0.5,0.4-0.7v-0.1c0.7-1.3,0.7-2.3,0.7-3.3c0-0.8,0-1.8,0.4-2.8
	c0.7-1.9,1.8-3.2,3.5-4.2c0.2-0.1,0.4-0.2,0.5-0.3c0.2-1.5,1.4-2.7,3-2.7c1.6,0,2.9,1.2,3.1,2.7c0.2,0.1,0.3,0.2,0.5,0.3
	c1.7,1,2.8,2.2,3.5,4.2c0.4,1.1,0.4,2,0.4,2.8c0,1.1,0,2.1,0.7,3.5c0.1,0.1,0.1,0.3,0.2,0.4c0.2,0.3,0.3,0.5,0.5,0.9l0.2,0.3
	c0.5,0.9,1.1,1.8,1.3,2.9l0,0c0.2,1.2,0,1.9-0.1,2.3l-0.1,0.3c-0.4,0.6-1.2,0.9-2,0.9h-4.2C118.8,53.7,117.3,54.8,115.6,54.8z
	 M109.2,45c-0.1,0.4-0.3,0.7-0.5,0.9c-0.1,0.1-0.2,0.3-0.2,0.4c-0.6,1-1.2,1.9-1.3,2.7c-0.1,0.4-0.1,0.8,0,0.9l0.1,0.1
	c0.1,0.1,0.2,0.2,0.5,0.2h6v1c0,0.9,0.8,1.6,1.8,1.6c1,0,1.8-0.7,1.8-1.6v-1h6.1c0.1,0,0.3,0,0.3-0.1c0.1-0.2,0.1-0.5,0-1
	c-0.1-0.7-0.6-1.4-1.1-2.2l-0.3-0.5c-0.1-0.2-0.2-0.5-0.4-0.7c-0.1-0.2-0.2-0.4-0.3-0.5c-0.9-1.8-0.9-3.2-0.9-4.3
	c0-0.8,0-1.4-0.2-2.2c-0.5-1.5-1.3-2.4-2.6-3.1c-0.3-0.2-0.5-0.2-0.7-0.3l-0.7-0.2v-1c0-0.7-0.6-1.1-1.1-1.1c-0.6,0-1,0.5-1,1.1v1.1
	l-0.8,0.2c-0.4,0.1-0.5,0.2-0.7,0.3c-1.3,0.8-2.2,1.8-2.7,3.2c-0.2,0.7-0.2,1.4-0.2,2.1C110.1,41.9,110.1,43.3,109.2,45z"/><g><path class="st0" d="M141.6,54.8c-1.7,0-3.2-1.1-3.7-2.6h-4.1c-0.9,0-1.6-0.3-2.1-0.9c-0.6-0.6-0.8-1.5-0.5-2.7
		c0.2-1.1,0.9-2.2,1.5-3.2c0.1-0.1,0.2-0.3,0.3-0.5c0.1-0.2,0.3-0.5,0.4-0.7v-0.1c0.7-1.3,0.7-2.3,0.7-3.3c0-0.8,0-1.8,0.4-2.8
		c0.7-1.9,1.8-3.2,3.5-4.2c0.2-0.1,0.4-0.2,0.5-0.3c0.2-1.5,1.4-2.7,3-2.7s2.9,1.2,3.1,2.7c0.2,0.1,0.3,0.2,0.5,0.3
		c1.7,1,2.8,2.2,3.5,4.2c0.4,1.1,0.4,2,0.4,2.8c0,1.1,0,2.1,0.7,3.5c0.1,0.1,0.1,0.3,0.2,0.4c0.2,0.3,0.3,0.5,0.5,0.9l0.2,0.3
		c0.5,0.9,1.1,1.8,1.3,2.9c0.2,1.2,0,1.9-0.1,2.3l-0.1,0.3c-0.4,0.6-1.2,0.9-2,0.9h-4.2C144.8,53.7,143.3,54.8,141.6,54.8z
		 M135.2,45c-0.1,0.4-0.3,0.7-0.5,0.9c-0.1,0.1-0.2,0.3-0.2,0.4c-0.6,1-1.2,1.9-1.3,2.7c-0.1,0.4-0.1,0.8,0,0.9l0.1,0.1
		c0.1,0.1,0.1,0.2,0.5,0.2h6v1c0,0.9,0.8,1.6,1.8,1.6s1.8-0.7,1.8-1.6v-1h6.1c0.1,0,0.3,0,0.3-0.1c0.1-0.2,0.1-0.5,0-1
		c-0.1-0.7-0.6-1.4-1.1-2.2l-0.3-0.5c-0.1-0.2-0.2-0.5-0.4-0.7c-0.1-0.2-0.2-0.4-0.3-0.5c-0.9-1.8-0.9-3.2-0.9-4.3
		c0-0.8,0-1.4-0.2-2.2c-0.5-1.5-1.3-2.4-2.6-3.1c-0.2-0.2-0.5-0.2-0.7-0.3l-0.7-0.2v-1c0-0.7-0.6-1.1-1.1-1.1c-0.6,0-1,0.5-1,1.1
		v1.1l-0.8,0.2c-0.4,0.1-0.5,0.2-0.7,0.3c-1.3,0.8-2.2,1.8-2.7,3.2c-0.2,0.7-0.2,1.4-0.2,2.1C136.1,41.9,136.1,43.3,135.2,45z"/><ellipse class="st1" cx="146" cy="41.8" rx="5.9" ry="5.9"/><path class="st0" d="M145.7,39.5L145.7,39.5l-1.5,0.7l-0.3-1.4l2.1-0.9h1.5v7.7h-1.7v-6.1H145.7z"/></g><g><path class="st0" d="M157,57.8c0-1.7,0-3.3,0-4.9c0-1.7,0-3.4,0-4.9c0-5.2,0.7-9.4,2.3-12.5c1.5-3,4.1-4.5,7.9-4.6l1.9,4
		c-2.1,0.2-3.5,1.2-4.3,3c-0.8,1.8-1.2,4.6-1.2,8.6h5.4v11.5L157,57.8L157,57.8z M175,57.8c0-1.7,0-3.3,0-4.9c0-1.7,0-3.4,0-4.9
		c0-5.2,0.7-9.4,2.3-12.5c1.5-3,4.1-4.5,7.9-4.6l1.9,4c-2.1,0.2-3.5,1.2-4.3,3c-0.8,1.8-1.2,4.6-1.2,8.6h5.5v11.5L175,57.8L175,57.8
		z"/></g><g><path class="st0" d="M24,45.5c-0.1-4.9-4.1-8.7-9-8.7c-4.8,0-8.8,3.7-8.9,8.6v0.4c0,1.6,0.4,3.1,1.2,4.4l-1.1,3.4
		c-0.1,0.4,0,0.8,0.2,1s0.5,0.3,0.7,0.3c0.1,0,0.2,0,0.3,0l3.6-1.1c1.3,0.7,2.6,1,4.1,1c4.9,0,8.9-4,8.9-8.9V45.5z M20.5,49.6
		c-0.2,0.6-1.3,1.2-1.8,1.2c-0.4,0.1-0.4,0.4-3.2-0.7c-2.8-1-4.5-3.8-4.6-4c-0.1-0.1-0.7-0.9-0.9-1.8c-0.2-0.2-0.2-0.5-0.2-0.8
		c0-1.3,0.7-1.9,0.9-2.3c0.3-0.3,0.6-0.4,0.7-0.4s0.4,0,0.5,0s0.4-0.1,0.6,0.4c0.2,0.5,0.7,1.8,0.8,1.9c0.1,0.1,0.1,0.3,0,0.4
		c-0.1,0.1-0.1,0.2-0.1,0.3S13,44,13,44c-0.1,0.1-0.3,0.3-0.4,0.4c-0.1,0.1-0.3,0.2-0.1,0.5c0.1,0.2,0.7,1.1,1.5,1.8
		c1,0.9,1.9,1.2,2.2,1.3c0.3,0.1,0.4,0.1,0.6-0.1c0.1-0.1,0.7-0.7,0.9-1c0.1-0.3,0.4-0.2,0.6-0.1c0.2,0.1,1.5,0.7,1.8,0.9
		c0.2,0.1,0.4,0.2,0.6,0.5C20.6,48.5,20.6,49,20.5,49.6z"/></g><g><path class="st0" d="M56.5,52.1c-0.3,0.8-1.8,1.6-2.5,1.7c-0.6,0.1-0.6,0.6-4.4-0.9c-3.8-1.4-6.1-5.3-6.3-5.5
		c-0.1-0.2-0.9-1.2-1.3-2.5C42,44.5,42,44.2,42,43.8c0-1.8,1-2.7,1.3-3.1c0.4-0.4,0.8-0.5,1-0.5s0.5,0,0.7,0s0.5-0.1,0.8,0.6
		c0.3,0.7,1,2.5,1.1,2.7c0.1,0.1,0.1,0.4,0,0.6c-0.1,0.1-0.1,0.3-0.2,0.4c0,0.1-0.1,0.1-0.1,0.2c-0.2,0.2-0.4,0.4-0.6,0.6
		c-0.2,0.1-0.4,0.3-0.2,0.7c0.2,0.3,0.9,1.5,2,2.5c1.4,1.2,2.6,1.6,3,1.8s0.6,0.1,0.8-0.1c0.2-0.2,1-1,1.2-1.4s0.5-0.3,0.8-0.2
		s2.1,1,2.5,1.2c0.3,0.2,0.6,0.3,0.8,0.7C57,50.5,57,51.2,56.5,52.1z"/><path class="st0" d="M58,45.3H57c0-3.6-3-6.6-6.6-6.6v-1.1C54.7,37.7,58,41.1,58,45.3z"/><path class="st0" d="M54.8,45.1h-1.1c0-1.6-1.3-2.8-2.8-2.8v-1.1C53,41.2,54.8,43,54.8,45.1z"/></g><g><path class="st0" d="M94.1,44.9v0.2c0,2.1-0.3,3.6-1,4.5c-0.6,1-1.6,1.4-2.9,1.4c-0.9,0-1.7-0.2-2.3-0.7c-0.1-0.1-0.2-0.2-0.3-0.4
		c-1.1,0.7-2.1,1.1-3,1.1c-1.3,0-2.2-0.4-2.8-1.2c-0.6-0.8-0.9-2-0.9-3.8c0-1.7,0.3-3,0.9-3.8s1.6-1.2,2.9-1.2c0.5,0,1,0.1,1.5,0.4
		l0.3,0.1v-0.3h2.7v3.6c0,1.8,0,2.9,0.1,3.2s0.2,0.5,0.2,0.6c0.1,0.1,0.2,0.2,0.3,0.2c0.1,0,0.2,0,0.4,0c0.4,0,0.7-0.3,0.9-0.8
		c0.2-0.5,0.3-1.5,0.3-2.9v-0.2c0-2.1-0.5-3.7-1.5-4.6c-1-1-2.5-1.4-4.7-1.4s-3.8,0.6-4.9,1.8s-1.7,3-1.7,5.3s0.5,4.1,1.5,5.2
		c1,1.1,2.7,1.7,5.1,1.7l2.9-0.2l0.1,2.3c-1.2,0.1-2.2,0.2-3,0.2c-1.5,0-2.9-0.2-4-0.5s-2.1-0.8-2.9-1.5c-1.5-1.4-2.3-3.9-2.3-7.4
		c0-3.1,0.8-5.4,2.5-7s3.9-2.4,6.8-2.4s5.1,0.7,6.6,2.2C93.4,40,94.1,42.1,94.1,44.9z M84.8,48.6c0.5,0,1.1-0.2,1.8-0.5
		c-0.1-0.5-0.1-1.2-0.1-2.1v-2.5c-0.6-0.1-1-0.2-1.2-0.2c-0.7,0-1.1,0.2-1.4,0.6c-0.2,0.4-0.3,1.1-0.3,2
		C83.6,47.8,84,48.6,84.8,48.6z"/></g><g><path class="st0" d="M134.6,15.1l-7.1-13.5c-1.2-2.2-4-2.2-5.1,0l-7.1,13.5c-1.2,2.2,0.3,4.9,2.5,4.9h13.9
		C134.4,20,135.7,17.4,134.6,15.1z M125,18.6c-0.8,0-1.5-0.7-1.5-1.7s0.7-1.7,1.5-1.7s1.5,0.7,1.5,1.7S125.9,18.6,125,18.6z
		 M126.3,12.8c0,0.7-0.7,1.2-1.3,1.2c-0.7,0-1.2-0.6-1.3-1.2L123,4.9c-0.1-0.8,0.5-1.5,1.3-1.5h1.3c0.8,0,1.3,0.7,1.3,1.5
		L126.3,12.8z"/></g><path class="st0" d="M164.9,13c-0.5,0-1-0.2-1.4-0.6c-0.8-0.8-0.8-2,0-2.8l8.8-8.8c1.2-1.2,3.1-1.2,4.2,0l8.8,8.8
	c0.8,0.8,0.8,2,0,2.8c-0.8,0.8-2,0.8-2.8,0l-8.1-8.1l-8.1,8.1C166,12.8,165.5,13,164.9,13z"/><g><circle class="st0" cx="229.1" cy="2.2" r="2.2"/><circle class="st0" cx="233.6" cy="2.2" r="2.2"/><circle class="st0" cx="251.6" cy="2.2" r="2.2"/><circle class="st0" cx="269.5" cy="2.2" r="2.2"/><circle class="st0" cx="274" cy="2.2" r="2.2"/><circle class="st0" cx="229.1" cy="6.7" r="2.2"/><circle class="st0" cx="247.1" cy="6.7" r="2.2"/><circle class="st0" cx="251.6" cy="6.7" r="2.2"/><circle class="st0" cx="269.5" cy="6.7" r="2.2"/><circle class="st0" cx="229.1" cy="11.2" r="2.2"/><circle class="st0" cx="233.6" cy="11.2" r="2.2"/><circle class="st0" cx="238.1" cy="11.2" r="2.2"/><circle class="st0" cx="242.6" cy="11.2" r="2.2"/><circle class="st0" cx="251.6" cy="11.2" r="2.2"/><circle class="st0" cx="256" cy="11.2" r="2.2"/><ellipse transform="matrix(0.7423 -0.6701 0.6701 0.7423 59.6309 177.428)" class="st0" cx="260.5" cy="11.2" rx="2.2" ry="2.2"/><circle class="st0" cx="274" cy="11.2" r="2.2"/><circle class="st0" cx="242.6" cy="15.7" r="2.2"/><circle class="st0" cx="256" cy="15.7" r="2.2"/><circle class="st0" cx="269.5" cy="15.7" r="2.2"/><circle class="st0" cx="247.1" cy="20.2" r="2.2"/><circle class="st0" cx="251.6" cy="20.2" r="2.2"/><ellipse transform="matrix(0.8 -0.5999 0.5999 0.8 39.9571 160.3002)" class="st0" cx="260.5" cy="20.2" rx="2.2" ry="2.2"/><circle class="st0" cx="269.5" cy="20.2" r="2.2"/><circle class="st0" cx="274" cy="20.2" r="2.2"/><circle class="st0" cx="278.5" cy="20.2" r="2.2"/><circle class="st0" cx="229.1" cy="24.7" r="2.2"/><circle class="st0" cx="233.6" cy="24.7" r="2.2"/><circle class="st0" cx="242.6" cy="24.7" r="2.2"/><circle class="st0" cx="256" cy="24.7" r="2.2"/><circle class="st0" cx="265" cy="24.7" r="2.2"/><circle class="st0" cx="269.5" cy="24.7" r="2.2"/><circle class="st0" cx="282.9" cy="24.7" r="2.2"/><circle class="st0" cx="229.1" cy="29.1" r="2.2"/><circle class="st0" cx="238.1" cy="29.1" r="2.2"/><circle class="st0" cx="247.1" cy="29.1" r="2.2"/><circle class="st0" cx="256" cy="29.1" r="2.2"/><circle class="st0" cx="265" cy="29.1" r="2.2"/><circle class="st0" cx="274" cy="29.1" r="2.2"/><circle class="st0" cx="282.9" cy="29.1" r="2.2"/><circle class="st0" cx="229.1" cy="33.6" r="2.2"/><circle class="st0" cx="242.6" cy="33.6" r="2.2"/><circle class="st0" cx="247.1" cy="33.6" r="2.2"/><circle class="st0" cx="251.6" cy="33.6" r="2.2"/><circle class="st0" cx="256" cy="33.6" r="2.2"/><ellipse transform="matrix(0.8 -0.5999 0.5999 0.8 31.9183 162.9792)" class="st0" cx="260.5" cy="33.6" rx="2.2" ry="2.2"/><circle class="st0" cx="265" cy="33.6" r="2.2"/><circle class="st0" cx="269.5" cy="33.6" r="2.2"/><circle class="st0" cx="274" cy="33.6" r="2.2"/><circle class="st0" cx="202.2" cy="38.1" r="2.2"/><circle class="st0" cx="206.7" cy="38.1" r="2.2"/><circle class="st0" cx="211.2" cy="38.1" r="2.2"/><circle class="st0" cx="220.2" cy="38.1" r="2.2"/><circle class="st0" cx="229.1" cy="38.1" r="2.2"/><circle class="st0" cx="242.6" cy="38.1" r="2.2"/><circle class="st0" cx="256" cy="38.1" r="2.2"/><ellipse transform="matrix(0.8 -0.5999 0.5999 0.8 29.2186 163.8789)" class="st0" cx="260.5" cy="38.1" rx="2.2" ry="2.2"/><circle class="st0" cx="282.9" cy="38.1" r="2.2"/><circle class="st0" cx="287.4" cy="38.1" r="2.2"/><circle class="st0" cx="291.9" cy="38.1" r="2.2"/><circle class="st0" cx="296.4" cy="38.1" r="2.2"/><circle class="st0" cx="309.8" cy="38.1" r="2.2"/><circle class="st0" cx="314.3" cy="38.1" r="2.2"/><circle class="st0" cx="318.8" cy="38.1" r="2.2"/><circle class="st0" cx="202.2" cy="42.6" r="2.2"/><circle class="st0" cx="215.7" cy="42.6" r="2.2"/><circle class="st0" cx="224.7" cy="42.6" r="2.2"/><circle class="st0" cx="247.1" cy="42.6" r="2.2"/><circle class="st0" cx="265" cy="42.6" r="2.2"/><circle class="st0" cx="274" cy="42.6" r="2.2"/><circle class="st0" cx="278.5" cy="42.6" r="2.2"/><circle class="st0" cx="287.4" cy="42.6" r="2.2"/><circle class="st0" cx="291.9" cy="42.6" r="2.2"/><circle class="st0" cx="296.4" cy="42.6" r="2.2"/><circle class="st0" cx="318.8" cy="42.6" r="2.2"/><circle class="st0" cx="202.2" cy="47.1" r="2.2"/><circle class="st0" cx="206.7" cy="47.1" r="2.2"/><circle class="st0" cx="211.2" cy="47.1" r="2.2"/><circle class="st0" cx="220.2" cy="47.1" r="2.2"/><circle class="st0" cx="224.7" cy="47.1" r="2.2"/><circle class="st0" cx="229.1" cy="47.1" r="2.2"/><circle class="st0" cx="233.6" cy="47.1" r="2.2"/><circle class="st0" cx="242.6" cy="47.1" r="2.2"/><circle class="st0" cx="247.1" cy="47.1" r="2.2"/><circle class="st0" cx="251.6" cy="47.1" r="2.2"/><circle class="st0" cx="256" cy="47.1" r="2.2"/><circle class="st0" cx="274" cy="47.1" r="2.2"/><circle class="st0" cx="287.4" cy="47.1" r="2.2"/><circle class="st0" cx="291.9" cy="47.1" r="2.2"/><circle class="st0" cx="300.9" cy="47.1" r="2.2"/><circle class="st0" cx="197.8" cy="51.6" r="2.2"/><circle class="st0" cx="215.7" cy="51.6" r="2.2"/><circle class="st0" cx="229.1" cy="51.6" r="2.2"/><circle class="st0" cx="233.6" cy="51.6" r="2.2"/><circle class="st0" cx="242.6" cy="51.6" r="2.2"/><circle class="st0" cx="251.6" cy="51.6" r="2.2"/><ellipse transform="matrix(0.8 -0.5999 0.5999 0.8 21.1199 166.5779)" class="st0" cx="260.5" cy="51.6" rx="2.2" ry="2.2"/><circle class="st0" cx="265" cy="51.6" r="2.2"/><circle class="st0" cx="269.5" cy="51.6" r="2.2"/><circle class="st0" cx="278.5" cy="51.6" r="2.2"/><circle class="st0" cx="287.4" cy="51.6" r="2.2"/><circle class="st0" cx="291.9" cy="51.6" r="2.2"/><circle class="st0" cx="296.4" cy="51.6" r="2.2"/><circle class="st0" cx="300.9" cy="51.6" r="2.2"/><circle class="st0" cx="314.3" cy="51.6" r="2.2"/><circle class="st0" cx="202.2" cy="56" r="2.2"/><circle class="st0" cx="211.2" cy="56" r="2.2"/><circle class="st0" cx="215.7" cy="56" r="2.2"/><circle class="st0" cx="220.2" cy="56" r="2.2"/><circle class="st0" cx="229.1" cy="56" r="2.2"/><circle class="st0" cx="238.1" cy="56" r="2.2"/><circle class="st0" cx="251.6" cy="56" r="2.2"/><ellipse transform="matrix(0.8 -0.5999 0.5999 0.8 18.4803 167.4575)" class="st0" cx="260.5" cy="56" rx="2.2" ry="2.2"/><circle class="st0" cx="265" cy="56" r="2.2"/><circle class="st0" cx="269.5" cy="56" r="2.2"/><circle class="st0" cx="274" cy="56" r="2.2"/><circle class="st0" cx="287.4" cy="56" r="2.2"/><circle class="st0" cx="296.4" cy="56" r="2.2"/><circle class="st0" cx="314.3" cy="56" r="2.2"/><circle class="st0" cx="318.8" cy="56" r="2.2"/><circle class="st0" cx="202.2" cy="60.5" r="2.2"/><circle class="st0" cx="206.7" cy="60.5" r="2.2"/><circle class="st0" cx="224.7" cy="60.5" r="2.2"/><circle class="st0" cx="229.1" cy="60.5" r="2.2"/><circle class="st0" cx="233.6" cy="60.5" r="2.2"/><circle class="st0" cx="242.6" cy="60.5" r="2.2"/><ellipse transform="matrix(0.8 -0.5999 0.5999 0.8 15.7807 168.3572)" class="st0" cx="260.5" cy="60.5" rx="2.2" ry="2.2"/><circle class="st0" cx="265" cy="60.5" r="2.2"/><circle class="st0" cx="274" cy="60.5" r="2.2"/><circle class="st0" cx="278.5" cy="60.5" r="2.2"/><circle class="st0" cx="282.9" cy="60.5" r="2.2"/><circle class="st0" cx="287.4" cy="60.5" r="2.2"/><circle class="st0" cx="291.9" cy="60.5" r="2.2"/><circle class="st0" cx="300.9" cy="60.5" r="2.2"/><circle class="st0" cx="305.4" cy="60.5" r="2.2"/><circle class="st0" cx="314.3" cy="60.5" r="2.2"/><circle class="st0" cx="318.8" cy="60.5" r="2.2"/><circle class="st0" cx="193.3" cy="65" r="2.2"/><circle class="st0" cx="211.2" cy="65" r="2.2"/><circle class="st0" cx="220.2" cy="65" r="2.2"/><circle class="st0" cx="224.7" cy="65" r="2.2"/><circle class="st0" cx="229.1" cy="65" r="2.2"/><circle class="st0" cx="233.6" cy="65" r="2.2"/><circle class="st0" cx="238.1" cy="65" r="2.2"/><circle class="st0" cx="242.6" cy="65" r="2.2"/><circle class="st0" cx="247.1" cy="65" r="2.2"/><circle class="st0" cx="251.6" cy="65" r="2.2"/><circle class="st0" cx="256" cy="65" r="2.2"/><circle class="st0" cx="265" cy="65" r="2.2"/><circle class="st0" cx="269.5" cy="65" r="2.2"/><circle class="st0" cx="274" cy="65" r="2.2"/><circle class="st0" cx="282.9" cy="65" r="2.2"/><circle class="st0" cx="296.4" cy="65" r="2.2"/><circle class="st0" cx="314.3" cy="65" r="2.2"/><circle class="st0" cx="197.8" cy="69.5" r="2.2"/><circle class="st0" cx="206.7" cy="69.5" r="2.2"/><circle class="st0" cx="233.6" cy="69.5" r="2.2"/><circle class="st0" cx="238.1" cy="69.5" r="2.2"/><circle class="st0" cx="242.6" cy="69.5" r="2.2"/><circle class="st0" cx="247.1" cy="69.5" r="2.2"/><circle class="st0" cx="251.6" cy="69.5" r="2.2"/><circle class="st0" cx="265" cy="69.5" r="2.2"/><circle class="st0" cx="278.5" cy="69.5" r="2.2"/><circle class="st0" cx="282.9" cy="69.5" r="2.2"/><circle class="st0" cx="287.4" cy="69.5" r="2.2"/><circle class="st0" cx="291.9" cy="69.5" r="2.2"/><circle class="st0" cx="300.9" cy="69.5" r="2.2"/><circle class="st0" cx="305.4" cy="69.5" r="2.2"/><circle class="st0" cx="193.3" cy="74" r="2.2"/><circle class="st0" cx="197.8" cy="74" r="2.2"/><circle class="st0" cx="202.2" cy="74" r="2.2"/><circle class="st0" cx="206.7" cy="74" r="2.2"/><circle class="st0" cx="211.2" cy="74" r="2.2"/><circle class="st0" cx="215.7" cy="74" r="2.2"/><circle class="st0" cx="220.2" cy="74" r="2.2"/><circle class="st0" cx="224.7" cy="74" r="2.2"/><circle class="st0" cx="247.1" cy="74" r="2.2"/><circle class="st0" cx="251.6" cy="74" r="2.2"/><circle class="st0" cx="256" cy="74" r="2.2"/><ellipse transform="matrix(0.6 -0.8 0.8 0.6 45.0005 237.9879)" class="st0" cx="260.5" cy="74" rx="2.2" ry="2.2"/><circle class="st0" cx="282.9" cy="74" r="2.2"/><circle class="st0" cx="287.4" cy="74" r="2.2"/><circle class="st0" cx="300.9" cy="74" r="2.2"/><circle class="st0" cx="305.4" cy="74" r="2.2"/><circle class="st0" cx="309.8" cy="74" r="2.2"/><circle class="st0" cx="193.3" cy="78.4" r="2.2"/><circle class="st0" cx="197.8" cy="78.4" r="2.2"/><circle class="st0" cx="202.2" cy="78.4" r="2.2"/><circle class="st0" cx="211.2" cy="78.4" r="2.2"/><circle class="st0" cx="215.7" cy="78.4" r="2.2"/><circle class="st0" cx="224.7" cy="78.4" r="2.2"/><circle class="st0" cx="233.6" cy="78.4" r="2.2"/><circle class="st0" cx="242.6" cy="78.4" r="2.2"/><ellipse transform="matrix(0.6 -0.8 0.8 0.6 41.4804 239.7481)" class="st0" cx="260.5" cy="78.4" rx="2.2" ry="2.2"/><circle class="st0" cx="282.9" cy="78.4" r="2.2"/><circle class="st0" cx="287.4" cy="78.4" r="2.2"/><circle class="st0" cx="291.9" cy="78.4" r="2.2"/><circle class="st0" cx="296.4" cy="78.4" r="2.2"/><circle class="st0" cx="305.4" cy="78.4" r="2.2"/><circle class="st0" cx="309.8" cy="78.4" r="2.2"/><circle class="st0" cx="314.3" cy="78.4" r="2.2"/><circle class="st0" cx="318.8" cy="78.4" r="2.2"/><circle class="st0" cx="193.3" cy="82.9" r="2.2"/><circle class="st0" cx="215.7" cy="82.9" r="2.2"/><circle class="st0" cx="220.2" cy="82.9" r="2.2"/><circle class="st0" cx="229.1" cy="82.9" r="2.2"/><circle class="st0" cx="233.6" cy="82.9" r="2.2"/><circle class="st0" cx="238.1" cy="82.9" r="2.2"/><circle class="st0" cx="265" cy="82.9" r="2.2"/><circle class="st0" cx="274" cy="82.9" r="2.2"/><circle class="st0" cx="291.9" cy="82.9" r="2.2"/><circle class="st0" cx="305.4" cy="82.9" r="2.2"/><circle class="st0" cx="193.3" cy="87.4" r="2.2"/><circle class="st0" cx="202.2" cy="87.4" r="2.2"/><circle class="st0" cx="211.2" cy="87.4" r="2.2"/><circle class="st0" cx="233.6" cy="87.4" r="2.2"/><circle class="st0" cx="238.1" cy="87.4" r="2.2"/><ellipse transform="matrix(0.6 -0.8 0.8 0.6 34.2803 243.3484)" class="st0" cx="260.5" cy="87.4" rx="2.2" ry="2.2"/><circle class="st0" cx="274" cy="87.4" r="2.2"/><circle class="st0" cx="278.5" cy="87.4" r="2.2"/><circle class="st0" cx="282.9" cy="87.4" r="2.2"/><circle class="st0" cx="291.9" cy="87.4" r="2.2"/><circle class="st0" cx="296.4" cy="87.4" r="2.2"/><circle class="st0" cx="300.9" cy="87.4" r="2.2"/><circle class="st0" cx="305.4" cy="87.4" r="2.2"/><circle class="st0" cx="193.3" cy="91.9" r="2.2"/><circle class="st0" cx="206.7" cy="91.9" r="2.2"/><circle class="st0" cx="215.7" cy="91.9" r="2.2"/><circle class="st0" cx="220.2" cy="91.9" r="2.2"/><circle class="st0" cx="224.7" cy="91.9" r="2.2"/><circle class="st0" cx="229.1" cy="91.9" r="2.2"/><circle class="st0" cx="238.1" cy="91.9" r="2.2"/><circle class="st0" cx="247.1" cy="91.9" r="2.2"/><ellipse transform="matrix(0.6 -0.8 0.8 0.6 30.6802 245.1488)" class="st0" cx="260.5" cy="91.9" rx="2.2" ry="2.2"/><circle class="st0" cx="274" cy="91.9" r="2.2"/><circle class="st0" cx="278.5" cy="91.9" r="2.2"/><circle class="st0" cx="282.9" cy="91.9" r="2.2"/><circle class="st0" cx="287.4" cy="91.9" r="2.2"/><circle class="st0" cx="291.9" cy="91.9" r="2.2"/><circle class="st0" cx="296.4" cy="91.9" r="2.2"/><circle class="st0" cx="300.9" cy="91.9" r="2.2"/><circle class="st0" cx="309.8" cy="91.9" r="2.2"/><circle class="st0" cx="318.8" cy="91.9" r="2.2"/><circle class="st0" cx="229.1" cy="96.4" r="2.2"/><circle class="st0" cx="238.1" cy="96.4" r="2.2"/><circle class="st0" cx="242.6" cy="96.4" r="2.2"/><circle class="st0" cx="247.1" cy="96.4" r="2.2"/><circle class="st0" cx="256" cy="96.4" r="2.2"/><circle class="st0" cx="274" cy="96.4" r="2.2"/><circle class="st0" cx="278.5" cy="96.4" r="2.2"/><circle class="st0" cx="282.9" cy="96.4" r="2.2"/><circle class="st0" cx="300.9" cy="96.4" r="2.2"/><circle class="st0" cx="305.4" cy="96.4" r="2.2"/><circle class="st0" cx="314.3" cy="96.4" r="2.2"/><circle class="st0" cx="318.8" cy="96.4" r="2.2"/><circle class="st0" cx="238.1" cy="100.9" r="2.2"/><circle class="st0" cx="247.1" cy="100.9" r="2.2"/><circle class="st0" cx="256" cy="100.9" r="2.2"/><circle class="st0" cx="269.5" cy="100.9" r="2.2"/><circle class="st0" cx="278.5" cy="100.9" r="2.2"/><circle class="st0" cx="282.9" cy="100.9" r="2.2"/><circle class="st0" cx="291.9" cy="100.9" r="2.2"/><circle class="st0" cx="300.9" cy="100.9" r="2.2"/><circle class="st0" cx="233.6" cy="105.3" r="2.2"/><circle class="st0" cx="242.6" cy="105.3" r="2.2"/><circle class="st0" cx="251.6" cy="105.3" r="2.2"/><circle class="st0" cx="278.5" cy="105.3" r="2.2"/><circle class="st0" cx="282.9" cy="105.3" r="2.2"/><circle class="st0" cx="300.9" cy="105.3" r="2.2"/><circle class="st0" cx="305.4" cy="105.3" r="2.2"/><circle class="st0" cx="229.1" cy="109.8" r="2.2"/><circle class="st0" cx="233.6" cy="109.8" r="2.2"/><circle class="st0" cx="247.1" cy="109.8" r="2.2"/><circle class="st0" cx="251.6" cy="109.8" r="2.2"/><circle class="st0" cx="256" cy="109.8" r="2.2"/><ellipse transform="matrix(0.6 -0.8 0.8 0.6 16.3598 252.3095)" class="st0" cx="260.5" cy="109.8" rx="2.2" ry="2.2"/><circle class="st0" cx="274" cy="109.8" r="2.2"/><circle class="st0" cx="282.9" cy="109.8" r="2.2"/><circle class="st0" cx="287.4" cy="109.8" r="2.2"/><circle class="st0" cx="291.9" cy="109.8" r="2.2"/><circle class="st0" cx="296.4" cy="109.8" r="2.2"/><circle class="st0" cx="300.9" cy="109.8" r="2.2"/><circle class="st0" cx="305.4" cy="109.8" r="2.2"/><circle class="st0" cx="309.8" cy="109.8" r="2.2"/><circle class="st0" cx="318.8" cy="109.8" r="2.2"/><circle class="st0" cx="229.1" cy="114.3" r="2.2"/><circle class="st0" cx="233.6" cy="114.3" r="2.2"/><circle class="st0" cx="238.1" cy="114.3" r="2.2"/><circle class="st0" cx="242.6" cy="114.3" r="2.2"/><circle class="st0" cx="251.6" cy="114.3" r="2.2"/><circle class="st0" cx="256" cy="114.3" r="2.2"/><ellipse transform="matrix(0.6 -0.8 0.8 0.6 12.7598 254.1097)" class="st0" cx="260.5" cy="114.3" rx="2.2" ry="2.2"/><circle class="st0" cx="278.5" cy="114.3" r="2.2"/><circle class="st0" cx="282.9" cy="114.3" r="2.2"/><circle class="st0" cx="287.4" cy="114.3" r="2.2"/><circle class="st0" cx="296.4" cy="114.3" r="2.2"/><circle class="st0" cx="314.3" cy="114.3" r="2.2"/><circle class="st0" cx="229.1" cy="118.8" r="2.2"/><circle class="st0" cx="233.6" cy="118.8" r="2.2"/><circle class="st0" cx="247.1" cy="118.8" r="2.2"/><circle class="st0" cx="251.6" cy="118.8" r="2.2"/><circle class="st0" cx="265" cy="118.8" r="2.2"/><circle class="st0" cx="269.5" cy="118.8" r="2.2"/><circle class="st0" cx="274" cy="118.8" r="2.2"/><circle class="st0" cx="278.5" cy="118.8" r="2.2"/><circle class="st0" cx="282.9" cy="118.8" r="2.2"/><circle class="st0" cx="287.4" cy="118.8" r="2.2"/><circle class="st0" cx="291.9" cy="118.8" r="2.2"/><circle class="st0" cx="296.4" cy="118.8" r="2.2"/><circle class="st0" cx="300.9" cy="118.8" r="2.2"/><circle class="st0" cx="309.8" cy="118.8" r="2.2"/><circle class="st0" cx="314.3" cy="118.8" r="2.2"/><circle class="st0" cx="233.6" cy="123.3" r="2.2"/><circle class="st0" cx="269.5" cy="123.3" r="2.2"/><circle class="st0" cx="282.9" cy="123.3" r="2.2"/><circle class="st0" cx="287.4" cy="123.3" r="2.2"/><circle class="st0" cx="291.9" cy="123.3" r="2.2"/><circle class="st0" cx="300.9" cy="123.3" r="2.2"/><circle class="st0" cx="314.3" cy="123.3" r="2.2"/><circle class="st0" cx="238.1" cy="127.8" r="2.2"/><circle class="st0" cx="247.1" cy="127.8" r="2.2"/><circle class="st0" cx="256" cy="127.8" r="2.2"/><circle class="st0" cx="269.5" cy="127.8" r="2.2"/><circle class="st0" cx="274" cy="127.8" r="2.2"/><circle class="st0" cx="282.9" cy="127.8" r="2.2"/><circle class="st0" cx="287.4" cy="127.8" r="2.2"/><circle class="st0" cx="291.9" cy="127.8" r="2.2"/><circle class="st0" cx="300.9" cy="127.8" r="2.2"/><path class="st0" d="M191,15.7L191,15.7c0,8.7,6.9,15.7,15.7,15.7l0,0c8.7,0,15.7-6.9,15.7-15.7l0,0C222.4,7,215.5,0,206.7,0l0,0
		C198,0,191,6.9,191,15.7z M206.7,26.9L206.7,26.9c-6.3,0-11.2-4.9-11.2-11.2l0,0c0-6.3,4.9-11.2,11.2-11.2l0,0
		c6.3,0,11.2,4.9,11.2,11.2l0,0C217.9,22,213,26.9,206.7,26.9z"/><path class="st0" d="M289.7,15.7L289.7,15.7c0,8.7,6.9,15.7,15.7,15.7l0,0c8.7,0,15.7-6.9,15.7-15.7l0,0C321,6.9,314.1,0,305.4,0
		l0,0C296.6,0,289.7,6.9,289.7,15.7z M305.4,26.9L305.4,26.9c-6.3,0-11.2-4.9-11.2-11.2l0,0c0-6.3,4.9-11.2,11.2-11.2l0,0
		c6.3,0,11.2,4.9,11.2,11.2l0,0C316.6,22,311.6,26.9,305.4,26.9z"/><path class="st0" d="M191,114.3L191,114.3c0,8.7,6.9,15.7,15.7,15.7l0,0c8.7,0,15.7-6.9,15.7-15.7l0,0c0-8.7-6.9-15.7-15.7-15.7
		l0,0C198,98.6,191,105.6,191,114.3z M206.7,125.5L206.7,125.5c-6.3,0-11.2-4.9-11.2-11.2l0,0c0-6.3,4.9-11.2,11.2-11.2l0,0
		c6.3,0,11.2,4.9,11.2,11.2l0,0C217.9,120.6,213,125.5,206.7,125.5z"/><circle class="st0" cx="206.7" cy="15.7" r="6.7"/><circle class="st0" cx="305.4" cy="15.7" r="6.7"/><circle class="st0" cx="206.7" cy="114.3" r="6.7"/><rect x="237.6" y="46.5" class="st0" width="37" height="37"/><path class="st2" d="M240,50.5v29c0,0.9,0.7,1.6,1.6,1.6h29c0.9,0,1.6-0.7,1.6-1.6v-29c0-0.9-0.7-1.6-1.6-1.6h-29
		C240.7,48.9,240,49.7,240,50.5z"/><rect x="251.4" y="63.3" class="st0" width="15.2" height="3.3"/><path class="st0" d="M264,69.2c-1.5,2.6-4.2,4.3-7.4,4.3c-4.7,0-8.5-3.8-8.5-8.5s3.8-8.5,8.5-8.5c3.3,0,6.1,1.8,7.5,4.5l2.4-2.5
		c-2.1-3.2-5.8-5.4-9.9-5.4c-6.5,0-11.9,5.3-11.9,11.9s5.3,11.9,11.9,11.9c4.1,0,7.7-2.1,9.9-5.3L264,69.2z"/></g><g><path class="st0" d="M34.5,8.2c-2.6,0-4.7,2.1-4.7,4.7c0,2.7,2.1,4.8,4.8,4.8c1.4,0,2.7-0.6,3.6-1.6L37.1,15
		c-0.6,0.7-1.5,1.1-2.5,1.1c-1.6,0-2.8-1-3-2.5h7.1c0.1-0.4,0.1-0.7,0.1-0.9C38.8,10,37,8.2,34.5,8.2z M31.6,12.1
		c0.3-1.4,1.4-2.4,2.9-2.4s2.5,0.9,2.6,2.4L31.6,12.1z"/><path class="st0" d="M51.3,8.2c-1.3,0-2.5,0.6-3.1,1.6c-0.6-1-1.7-1.6-3-1.6c-1.1,0-2.1,0.5-2.7,1.3V8.4h-1.7v9.1h1.7V12l0,0
		c0-1.3,1-2.2,2.2-2.2s2.2,0.8,2.2,2.2v5.4h1.7v-5.9c0.2-1.1,1.1-1.8,2.2-1.8c1.2,0,2.2,0.8,2.2,2.2v5.5h1.7v-5.8
		C54.7,9.5,53.2,8.2,51.3,8.2z"/><path class="st0" d="M61.9,8.2c-1.3,0-2.4,0.6-3.1,1.5V8.3h-1.7v13.4h1.7v-5.5c0.7,0.9,1.8,1.4,3.1,1.4c2.5,0,4.4-2.1,4.4-4.7
		C66.3,10.2,64.4,8.2,61.9,8.2z M61.6,16c-1.7,0-2.9-1.3-2.9-3.1s1.2-3.1,2.9-3.1s2.9,1.3,2.9,3.1S63.3,16,61.6,16z"/><rect x="68.3" y="8.3" class="st0" width="1.7" height="9.1"/><path class="st0" d="M76.7,8.2c-1.1,0-2,0.5-2.5,1.3V8.4h-1.7v9.1h1.7v-5.2c0-1.6,0.9-2.5,2.2-2.5c0.6,0,1,0.2,1.4,0.6L79,9.2
		C78.4,8.5,77.7,8.2,76.7,8.2z"/><rect x="80.3" y="8.3" class="st0" width="1.7" height="9.1"/><path class="st0" d="M88.7,9.8c1,0,1.8,0.3,2.4,1l1.1-1.1c-0.9-1-2.1-1.5-3.5-1.5c-2.7,0-4.8,2.1-4.8,4.7c0,2.7,2.1,4.8,4.8,4.8
		c1.4,0,2.7-0.6,3.5-1.5l-1.1-1.1c-0.6,0.7-1.4,1-2.4,1c-1.7,0-3-1.3-3-3.1C85.7,11.1,87,9.8,88.7,9.8z"/><path class="st0" d="M99.7,13.6c0,1.5-0.8,2.4-2.2,2.4c-1.4,0-2.2-0.9-2.2-2.4V8.3h-1.7v5.3c0,2.4,1.6,4,3.9,4s3.9-1.6,3.9-4V8.3
		h-1.7L99.7,13.6L99.7,13.6z"/><path class="st0" d="M105.2,10.7c0-0.6,0.5-1,1.5-1s1.7,0.4,2.2,1l1.1-1.1c-0.7-1-1.9-1.5-3.3-1.5c-2,0-3.3,1-3.3,2.7
		c0,3.3,4.9,2.2,4.9,4.2c0,0.7-0.6,1.1-1.7,1.1s-2-0.4-2.6-1.2l-1.1,1.1c0.8,1.1,2.2,1.7,3.7,1.7c2.1,0,3.4-1.1,3.4-2.8
		C110,11.5,105.2,12.5,105.2,10.7z"/><path class="st0" d="M81.1,4.9c-0.5,0-0.9,0.4-0.9,0.9s0.4,1,0.9,1s0.9-0.4,0.9-1C82.1,5.3,81.7,4.9,81.1,4.9z"/><path class="st0" d="M69.1,4.9c-0.5,0-0.9,0.4-0.9,0.9s0.4,1,0.9,1s0.9-0.4,0.9-1C70.1,5.3,69.7,4.9,69.1,4.9z"/><path class="st3" d="M22.2,1.3H3.6c-1.3,0-2.3,1-2.3,2.3v18.6c0,1.3,1,2.3,2.3,2.3h18.6c1.3,0,2.3-1,2.3-2.3V3.6
		C24.5,2.3,23.5,1.3,22.2,1.3z"/><path class="st0" d="M23.2,0H2.6C1.2,0,0,1.2,0,2.6v20.6c0,1.4,1.2,2.6,2.6,2.6h20.6c1.4,0,2.6-1.2,2.6-2.6V2.6
		C25.8,1.2,24.6,0,23.2,0z M20.4,17.4c-1.5,2.6-4.3,4.3-7.6,4.3c-4.9,0-8.8-4-8.8-8.8C4,8,8.1,4,12.9,4.1c3.2,0,5.9,1.7,7.4,4.3
		c0,0.1,0,0.2-0.1,0.2l-2.1,1.2c-0.1,0-0.2,0-0.2-0.1c-1.1-1.8-3-2.9-5.2-2.9c-3.4,0-6.1,2.8-6.1,6.2c0,3.3,2.8,6,6.1,6
		c2.2,0,4.1-1.2,5.2-2.9c0-0.1,0.1-0.1,0.2-0.1l2.1,1.2C20.4,17.3,20.5,17.4,20.4,17.4z M21.6,14.1c0,0.1-0.1,0.1-0.2,0.1h-4.9h-1.9
		H9.7c-0.1,0-0.1-0.1-0.2-0.1c-0.1-0.4-0.1-0.8-0.1-1.2s0-0.8,0.1-1.2c0-0.1,0.1-0.1,0.2-0.1h4.9h1.9h4.9c0.1,0,0.1,0.1,0.2,0.1
		c0.1,0.4,0.1,0.8,0.1,1.2S21.7,13.7,21.6,14.1z"/></g><g><path class="st0" d="M140,18.1V2c0-1.5,1.6-2.5,3-1.7l14,8c1.3,0.8,1.3,2.7,0,3.4l-14,8C141.7,20.6,140,19.6,140,18.1z"/></g><g><path class="st0" d="M54.8,72.7l2.8,5.7c0.1,0.2,0.2,0.3,0.4,0.3l6.3,0.9c0.4,0.1,0.6,0.6,0.3,0.9L60,84.9C60,85,59.8,85.2,60,85.4
		l1.1,6.3c0.1,0.4-0.4,0.7-0.7,0.5l-5.6-3c-0.1-0.1-0.3-0.1-0.5,0l-5.6,3c-0.4,0.2-0.8-0.1-0.7-0.5l1.1-6.3c0-0.2,0-0.3-0.1-0.5
		l-4.6-4.4c-0.3-0.3-0.1-0.8,0.3-0.9l6.3-0.9c0.2,0,0.3-0.1,0.4-0.3l2.8-5.7C54.1,72.3,54.6,72.3,54.8,72.7z"/></g><g><path class="st0" d="M27.1,81.6l-9.6-7c-0.4-0.3-0.9,0-0.9,0.5V79c0,0.3-0.3,0.6-0.6,0.6H6.3c-0.3,0-0.6,0.3-0.6,0.6v4.2
		C5.7,84.7,6,85,6.3,85H16c0.3,0,0.6,0.3,0.6,0.6v3.9c0,0.5,0.5,0.7,0.9,0.5l9.6-7.1C27.4,82.3,27.4,81.9,27.1,81.6z"/></g><path class="st0" d="M88.5,91L81,83.5c-0.3-0.3-0.3-0.7,0-1l2-2c0.3-0.3,0.7-0.3,1,0l4.5,4.5c0.3,0.3,0.7,0.3,1,0L101,73.6
	c0.3-0.3,0.7-0.3,1,0l2,2c0.3,0.3,0.3,0.7,0,1L89.6,91C89.3,91.3,88.8,91.3,88.5,91z"/><path class="st0" d="M176.6,76.4l-2.3-2.3c-0.2-0.2-0.5-0.2-0.7,0l-4.8,4.8c-0.2,0.2-0.5,0.2-0.7,0l-4.8-4.8c-0.2-0.2-0.5-0.2-0.7,0
	l-2.3,2.3c-0.2,0.2-0.2,0.5,0,0.7l4.8,4.8c0.2,0.2,0.2,0.5,0,0.7l-4.8,4.8c-0.2,0.2-0.2,0.5,0,0.7l2.3,2.3c0.2,0.2,0.5,0.2,0.7,0
	l4.8-4.8c0.2-0.2,0.5-0.2,0.7,0l4.8,4.8c0.2,0.2,0.5,0.2,0.7,0l2.3-2.3c0.2-0.2,0.2-0.5,0-0.7l-4.8-4.8c-0.2-0.2-0.2-0.5,0-0.7
	l4.8-4.8C176.9,76.9,176.9,76.7,176.6,76.4z"/><g><path class="st0" d="M132.4,83.2c-0.1,0.7-0.9,1.3-1.9,1.3s-1.8-0.6-1.9-1.3l-1-7.9c-0.1-0.8,0.8-1.6,1.9-1.6h2
		c1.1,0,2,0.7,1.9,1.6L132.4,83.2z"/><path class="st0" d="M130.4,90.8c-1.2,0-2.2-1-2.2-2.3s1-2.3,2.2-2.3s2.2,1,2.2,2.3S131.7,90.8,130.4,90.8z"/></g><path class="st0" d="M15.4,110.9h-0.8v-5.1c0-1.1-0.9-2-2-2H7.6c-1.1,0-2,0.9-2,2v5.1H4.6c-1.1,0-2,0.9-2,2v8.9c0,1.1,0.9,2,2,2
	h10.7c1.1,0,2-0.9,2-2v-8.9C17.3,111.8,16.5,110.9,15.4,110.9z M7.4,106.4c0-0.5,0.4-0.9,0.9-0.9h3.4c0.5,0,0.9,0.4,0.9,0.9v4.5H7.4
	V106.4z M10,122.7c-0.5,0-1-0.5-1-1.1c0-0.7,0.5-1.1,1-1.1c0.5,0,1,0.5,1,1.1C11,122.2,10.6,122.7,10,122.7z M10.9,118.8
	c0,0.5-0.5,0.8-0.9,0.8c-0.5,0-0.8-0.4-0.9-0.8l-0.5-5.3c-0.1-0.5,0.3-1,0.9-1h0.9c0.5,0,0.9,0.5,0.9,1L10.9,118.8z"/></svg>