<svg xmlns="http://www.w3.org/2000/svg" xmlns:xlink="http://www.w3.org/1999/xlink" xml:space="preserve" id="Camada_1" x="0" y="0" viewBox="0 0 1920 1280"><style>.st1{fill:none}</style><defs><path id="SVGID_1_" d="M.5 0h1919.1v1280H.5z"/></defs><clipPath id="SVGID_00000090256866859378848780000013474903613370352780_"><use xlink:href="#SVGID_1_" style="overflow:visible"/></clipPath><g style="clip-path:url(#SVGID_00000090256866859378848780000013474903613370352780_)"><path d="M0 0h1920v1280H0z" class="st1"/><path d="M0 0h1920v1280H0z" class="st1"/><path d="M0 0h1920v1280H0z" class="st1"/><path d="M0 0h1920v1280H0z"/><radialGradient id="SVGID_00000113341106597512224040000006129482112829708477_" cx="1798.789" cy="889.676" r="795.427" gradientTransform="matrix(1 0 0 -1.1 112.4 2378.8)" gradientUnits="userSpaceOnUse"><stop offset="0" style="stop-color:#c1303a"/><stop offset="1" style="stop-color:#c1303a;stop-opacity:0"/></radialGradient><ellipse cx="1857.5" cy="1438.4" rx="773.5" ry="850.4" style="opacity:.3;fill:url(#SVGID_00000113341106597512224040000006129482112829708477_)"/><radialGradient id="SVGID_00000157293818014708978370000014823283853610107814_" cx="82.231" cy="588.093" r="675.4" gradientTransform="matrix(-.5201 .7345 1.1426 .809 -430.692 -345.654)" gradientUnits="userSpaceOnUse"><stop offset="0" style="stop-color:#c1303a"/><stop offset="1" style="stop-color:#c1303a;stop-opacity:0"/></radialGradient><path d="M-123.5 752.4C-563.2 440.5-766.7-28.1-578-294.1s698.2-228.9 1137.9 83 643.2 780.4 454.5 1046.4-698.1 228.9-1137.9-82.9" style="opacity:.3;fill:url(#SVGID_00000157293818014708978370000014823283853610107814_)"/></g><path d="M.5 0h1919.1v1280H.5z" style="opacity:.4"/></svg>