<svg xmlns="http://www.w3.org/2000/svg" xmlns:xlink="http://www.w3.org/1999/xlink" xml:space="preserve" id="Camada_1" x="0" y="0" viewBox="0 0 1280 1920"><style>.st1{fill:none}</style><defs><path id="SVGID_1_" d="M0 .5h1280v1919.1H0z"/></defs><clipPath id="SVGID_00000177443800455658645320000012364197395618995644_"><use xlink:href="#SVGID_1_" style="overflow:visible"/></clipPath><g style="clip-path:url(#SVGID_00000177443800455658645320000012364197395618995644_)"><path d="M0 0h1280v1920H0z" class="st1"/><path d="M0 0h1280v1920H0z" class="st1"/><path d="M0 0h1280v1920H0z" class="st1"/><path d="M0 0h1280v1920H0z"/><radialGradient id="SVGID_00000075159878920531477990000007033500202794902715_" cx="2285.09" cy="2861.531" r="675.4" gradientTransform="matrix(-.5201 -.7345 1.1426 -.809 -1947.125 5842.78)" gradientUnits="userSpaceOnUse"><stop offset="0" style="stop-color:#9a303a"/><stop offset="1" style="stop-color:#9a303a;stop-opacity:0"/></radialGradient><path d="M-159.7 1292.7c439.8-311.9 949.2-349 1137.9-83s-14.8 734.6-454.5 1046.5-949.2 349.1-1137.9 83 14.8-734.6 454.5-1046.5" style="opacity:.3;fill:url(#SVGID_00000075159878920531477990000007033500202794902715_)"/><radialGradient id="SVGID_00000167397431316701989010000004037741451067603896_" cx="1582.675" cy="1304.117" r="795.427" gradientTransform="matrix(0 1 -1.1 0 2834.685 328.514)" gradientUnits="userSpaceOnUse"><stop offset="0" style="stop-color:#c1303a"/><stop offset="1" style="stop-color:#c1303a;stop-opacity:0"/></radialGradient><ellipse cx="1438.4" cy="1857.5" rx="850.4" ry="773.5" style="opacity:.3;fill:url(#SVGID_00000167397431316701989010000004037741451067603896_)"/><radialGradient id="SVGID_00000106849240289152179840000003639834401504361383_" cx="-397.035" cy="925.188" r="675.4" gradientTransform="matrix(.7345 -.5201 .809 1.1426 -266.342 -1065.121)" gradientUnits="userSpaceOnUse"><stop offset="0" style="stop-color:#c1303a"/><stop offset="1" style="stop-color:#c1303a;stop-opacity:0"/></radialGradient><path d="M752.4-123.5c311.8 439.8 348.9 949.2 82.9 1137.9S100.8 999.6-211.1 559.9s-349-949.2-83-1137.9 734.6 14.8 1046.5 454.5" style="opacity:.3;fill:url(#SVGID_00000106849240289152179840000003639834401504361383_)"/><radialGradient id="SVGID_00000147190513676746588900000003535221204493355687_" cx="4229.808" cy="101.063" r="675.4" gradientTransform="matrix(0 -1.3709 1.4971 0 978.018 5769.063)" gradientUnits="userSpaceOnUse"><stop offset="0" style="stop-color:#9a303a"/><stop offset="1" style="stop-color:#9a303a;stop-opacity:0"/></radialGradient><ellipse cx="1123.3" cy="37.3" rx="982.8" ry="900.4" style="opacity:.3;fill:url(#SVGID_00000147190513676746588900000003535221204493355687_)"/></g><path d="M0 .5h1280v1919.1H0z" style="opacity:.4"/></svg>