<svg xmlns="http://www.w3.org/2000/svg" xmlns:xlink="http://www.w3.org/1999/xlink" xml:space="preserve" id="Camada_1" x="0" y="0" viewBox="0 0 580.8 149.4"><style>.st0{fill:#fff}.st4{fill:#111}</style><path d="M201 65.9c-3.4-2-7.2-3-11.6-3-4.6 0-8.7 1.1-12.4 3.2-3.6 2.1-6.6 5.2-8.7 8.8-2.1 3.7-3.2 7.9-3.2 12.5q0 7.05 3.3 12.6c2.1 3.7 5.2 6.7 8.9 8.8 3.8 2.2 8 3.2 12.7 3.2 3.6 0 7.2-.7 10.5-2.1 3.2-1.3 6.1-3.4 8.3-6.1l-5.8-5.9q-2.4 2.7-5.7 4.2c-2.3.9-4.8 1.4-7.3 1.4-3.2 0-6-.7-8.4-2s-4.4-3.3-5.7-5.8c-.8-1.6-1.4-3.3-1.7-5h37c.2-.9.3-1.8.4-2.6s.1-1.5.1-2.1c0-4.4-.9-8.4-2.8-11.9-1.9-3.4-4.6-6.3-7.9-8.2m-19.8 7.2c2.3-1.3 5-2 8.1-2 2.9 0 5.4.6 7.4 1.8 2.1 1.2 3.7 3 4.8 5.2.8 1.6 1.3 3.4 1.5 5.2h-28.7c.3-1.6.8-3.2 1.6-4.7 1.1-2.2 3-4.2 5.3-5.5m110.6-1.9c1.6 2.7 2.4 5.8 2.4 9.5V111h-9V82.6c0-3.5-1.1-6.3-3.2-8.3s-4.8-3-8-3c-2.1 0-4.1.4-5.9 1.4-1.7.9-3.2 2.2-4.2 3.9-1.1 1.7-1.6 3.6-1.6 6v28.6h-8.9V82.6c0-3.5-1.1-6.3-3.2-8.3s-4.9-3-8.1-3c-2 0-4.1.4-5.9 1.4q-2.55 1.35-4.2 3.9c-1.1 1.7-1.6 3.6-1.6 6v28.6h-8.9V63.9h8.9v5.5c1.4-1.7 3.1-3.2 5.1-4.2 5.7-3 12.4-3 18.1-.1 2.7 1.4 4.8 3.6 6.4 6.2 0 .1.1.1.1.2 0-.1.1-.1.1-.2 1.7-2.6 4.1-4.7 6.8-6.2 2.8-1.5 6-2.3 9.1-2.2 3.2 0 6.4.7 9.2 2.2 2.7 1.4 4.9 3.5 6.5 6.1m51.1-5c-3.5-2.2-7.5-3.3-11.7-3.3-3.3 0-6.6.7-9.6 2.2-2.5 1.3-4.6 3.1-6.3 5.3v-6.5h-8.9v67h8.9v-26.2c1.6 2.2 3.8 4 6.2 5.2 3 1.5 6.3 2.3 9.7 2.2 4.1.1 8.2-1.1 11.7-3.2s6.3-5.2 8.2-8.8c2-3.7 3-7.9 3-12.5s-1-8.8-3-12.5c-1.9-3.7-4.8-6.8-8.2-8.9m0 29.6c-1.3 2.3-3.1 4.3-5.4 5.7-2.2 1.4-4.9 2.1-7.9 2.1-2.7.1-5.5-.7-7.8-2.1s-4.1-3.3-5.3-5.7-1.8-5.2-1.8-8.3c0-3.2.6-6 1.9-8.4 1.2-2.4 3-4.3 5.3-5.7 2.2-1.4 4.9-2 7.9-2 5.5-.1 10.6 2.9 13.1 7.8 1.4 2.6 2 5.4 2 8.3 0 3.1-.7 5.9-2 8.3m21.4-31.9h8.9v47.2h-8.9zm8.5-19.2c1 1.1 1.6 2.5 1.6 4s-.5 3-1.6 4.1c-2.3 2.2-5.9 2.2-8.1 0-1.1-1.1-1.6-2.6-1.6-4.1s.5-3 1.6-4c2.3-2.2 5.9-2.2 8.1 0M420 68.3l-5.9 6.1c-.9-1-2-1.8-3.3-2.3s-2.8-.7-4.2-.7c-3.3 0-6 1.1-8.1 3.2s-3.2 5.3-3.2 9.6v26.9h-8.9V63.9h8.9v5.5c.2-.4.5-.8.8-1.1q4.2-5.4 12-5.4c2.2 0 4.4.4 6.5 1.2 2 .9 3.8 2.2 5.4 4.2m14.9-23.6c1 1.1 1.6 2.5 1.6 4s-.5 3-1.6 4.1c-2.3 2.2-5.9 2.2-8.1 0-1.1-1.1-1.6-2.6-1.6-4.1s.5-3 1.6-4c2.3-2.2 5.9-2.2 8.1 0m-8.5 19.2h8.9v47.2h-8.9zm30.3 15.3c-1.3 2.4-2 5.1-2 8.2s.7 5.9 2 8.2 3.2 4.3 5.5 5.7c2.4 1.4 5.2 2.1 8 2.1 2.4 0 4.7-.4 6.9-1.3q3.15-1.35 5.4-3.9l5.9 6c-2.2 2.5-4.9 4.5-8 5.9-3.2 1.4-6.7 2.1-10.2 2.1q-6.9 0-12.6-3.3c-3.7-2.1-6.7-5.2-8.8-8.9-2.2-3.8-3.3-8.1-3.2-12.5 0-4.6 1.1-8.8 3.2-12.5s5.2-6.7 8.8-8.8c3.7-2.2 7.9-3.2 12.6-3.2 3.5 0 6.9.7 10.1 2 3.1 1.3 5.8 3.4 8 5.9l-6 6c-1.4-1.7-3.3-3.1-5.3-3.9-2.2-.9-4.5-1.4-6.9-1.3-2.8-.1-5.5.7-8 2-2.2 1.2-4.1 3.2-5.4 5.5m70.7-15.3h8.9v27.4c0 4.1-.9 7.7-2.6 10.8-1.7 3-4.1 5.6-7.1 7.3-3 1.8-6.5 2.6-10.5 2.6-3.9 0-7.4-.9-10.5-2.6-3-1.7-5.5-4.2-7.2-7.3s-2.6-6.7-2.6-10.8V63.9h8.9v27c0 2.6.5 4.8 1.3 6.7.8 1.8 2.2 3.3 3.9 4.3 1.8 1 3.9 1.5 6.1 1.5 3.5 0 6.3-1.1 8.2-3.3s3-5.3 3-9.2zM579 90.6c1.2 1.8 1.8 4.1 1.8 7.1 0 4.4-1.6 7.9-4.7 10.5-3.2 2.6-7.4 3.9-12.7 3.9-2.5 0-5.1-.3-7.5-1-2.3-.7-4.5-1.7-6.5-3s-3.7-2.8-5.2-4.6l5.8-5.8c1.6 2 3.6 3.6 6 4.7s5 1.6 7.5 1.5c2.8 0 4.9-.5 6.5-1.4 1.5-1 2.3-2.3 2.3-4s-.6-3.1-1.8-4c-1.4-1.1-3-1.9-4.7-2.4-1.9-.6-4-1.3-6.1-1.9s-4.2-1.4-6.1-2.4-3.5-2.3-4.7-4.1q-1.8-2.55-1.8-6.9c0-4.35.7-5.3 2.1-7.4s3.5-3.8 5.8-4.8c2.5-1.1 5.5-1.7 9-1.7 3.7 0 7 .7 9.9 1.9 2.8 1.3 5.3 3.3 7.1 5.8l-5.8 5.8c-1.3-1.7-3-3.1-4.9-4-2.1-.9-4.3-1.4-6.6-1.4-2.6 0-4.5.4-5.9 1.3-1.3.8-2.1 2.2-2 3.7 0 1.6.6 2.8 1.8 3.7 1.4 1 3 1.7 4.7 2.2 2 .6 4 1.2 6.1 1.8s4.1 1.5 6.1 2.5c1.6 1.2 3.2 2.6 4.5 4.4" class="st0"/><circle cx="125.1" cy="24.5" r="24.5" style="fill:#c1303a"/><defs><path id="SVGID_1_" d="M109.7 21.2h30.8v6.9h-30.8z"/></defs><clipPath id="SVGID_00000034797630578233067220000000851465226648505253_"><use xlink:href="#SVGID_1_" style="overflow:visible"/></clipPath><path d="M140.5 24.7c0 1.1-.1 2.3-.2 3.4H110q-.45-3.45 0-6.9h30.3c.1 1.2.2 2.3.2 3.5" style="clip-path:url(#SVGID_00000034797630578233067220000000851465226648505253_);fill:#fff"/><defs><path id="SVGID_00000118357790442932057570000016664999693207840422_" d="M121.7 9.2h6.9V40h-6.9z"/></defs><clipPath id="SVGID_00000138573899233550101160000015537130130835651755_"><use xlink:href="#SVGID_00000118357790442932057570000016664999693207840422_" style="overflow:visible"/></clipPath><path d="M125.1 40.1c-1.2 0-2.3-.1-3.4-.2V9.5c2.3-.3 4.6-.3 6.8 0v30.4c-1.1.1-2.3.2-3.4.2" style="clip-path:url(#SVGID_00000138573899233550101160000015537130130835651755_);fill:#fff"/><path d="M50 86.8c0 2.1.2 4.2.5 6.3h55.4c.3-2 .4-4.1.4-6.3s-.2-4.2-.4-6.3H50.5c-.3 2.1-.5 4.2-.5 6.3" class="st4"/><path d="M62.6 118.1c-17.2 0-31.3-14-31.3-31.3s14-31.3 31.3-31.3c10.6 0 20 5.3 25.6 13.3l10.3-7.2C90.5 50.4 77.4 43 62.6 43c-24.2 0-43.8 19.6-43.8 43.8s19.6 43.8 43.8 43.8c14.8 0 28-7.4 35.9-18.7l-10.3-7.2c-5.7 8.1-15.1 13.4-25.6 13.4" class="st4"/><path d="M97.4 24.7v-.4H20.6C9.2 24.3 0 33.5 0 44.9v83.9c0 11.4 9.2 20.6 20.6 20.6h83.9c11.4 0 20.6-9.2 20.6-20.6V52.4c-15.3 0-27.7-12.4-27.7-27.7M62.6 130.6c-24.2 0-43.8-19.6-43.8-43.8S38.4 43 62.6 43c14.8 0 28 7.4 35.9 18.7l-10.3 7.2c-5.7-8.1-15-13.3-25.6-13.3-17.2 0-31.3 14-31.3 31.3s14 31.3 31.3 31.3c10.6 0 19.9-5.3 25.6-13.3l10.3 7.2c-8 11.1-21.1 18.5-35.9 18.5m43.7-43.8c0 2.1-.2 4.2-.4 6.3H50.5c-.3-2-.5-4.1-.5-6.3s.2-4.2.5-6.3h55.4c.3 2.1.4 4.2.4 6.3" class="st0"/></svg>